#N canvas 0 94 1366 674 10;
#X obj 383 115 vsl 15 128 0 10 0 0 empty empty empty 0 -9 0 10 -262144
-1 -1 0 1;
#X floatatom 383 259 5 0 0 0 - - -, f 5;
#X obj 383 297 osc~;
#X obj 26 36 vsl 15 128 0 20 0 0 empty empty empty 0 -9 0 10 -262144
-1 -1 5900 1;
#X obj 81 37 vsl 15 128 0 120 0 0 empty empty empty 0 -9 0 10 -262144
-1 -1 5800 1;
#X obj 132 40 vsl 15 128 0 1 0 0 empty empty empty 0 -9 0 10 -262144
-1 -1 11600 1;
#X obj 253 42 vsl 15 128 0 500 0 0 empty empty empty 0 -9 0 10 -262144
-1 -1 9400 1;
#X obj 191 43 vsl 15 128 0 500 0 0 empty empty empty 0 -9 0 10 -262144
-1 -1 6600 1;
#X text 11 11 Attack;
#X text 75 9 Decay;
#X text 110 10 Decay_level;
#X text 185 11 Sustain;
#X text 241 14 Release;
#X text 367 82 TREMOLO;
#X text 304 21 ADSR GENERATOR;
#X floatatom 253 208 5 0 0 0 - - -, f 5;
#X floatatom 191 209 5 0 0 0 - - -, f 5;
#X floatatom 132 209 5 0 0 0 - - -, f 5;
#X floatatom 81 209 5 0 0 0 - - -, f 5;
#X floatatom 26 211 5 0 0 0 - - -, f 5;
#N canvas 29 98 1259 364 clav 1;
#X obj 42 33 inlet;
#X obj 209 32 inlet;
#X obj 359 31 inlet;
#X obj 509 28 inlet;
#X obj 689 25 inlet;
#N canvas 809 272 450 300 note 0;
#N canvas 183 113 667 670 ADSR 0;
#X obj 99 58 inlet;
#X obj 44 60 inlet;
#X obj 149 59 inlet;
#X obj 206 58 inlet;
#X obj 270 58 inlet;
#X floatatom 149 108 5 0 0 0 - - -, f 5;
#X floatatom 206 110 5 0 0 0 - - -, f 5;
#X floatatom 270 108 5 0 0 0 - - -, f 5;
#X floatatom 44 107 5 0 0 0 - - -, f 5;
#X floatatom 99 109 5 0 0 0 - - -, f 5;
#X obj 149 244 +;
#X obj 116 186 +;
#X obj 10 249 bng 15 250 50 0 empty empty empty 17 7 0 10 -262144 -1
-1;
#X obj 73 334 pack f f f f f f f f;
#X msg 73 404 1 \$2 \, \$4 \$3 \$2 \, \$4 \$8 \$6 \, 0 \$5 \$7;
#X obj 73 466 vline~;
#X obj -29 59 inlet;
#X text -31 31 ascii;
#X text 44 30 Attack;
#X text 102 18 Decay;
#X text 135 36 Decay Level;
#X text 202 18 Sustain;
#X text 268 29 Release;
#X obj 69 546 outlet~;
#X connect 0 0 9 0;
#X connect 1 0 8 0;
#X connect 2 0 5 0;
#X connect 3 0 6 0;
#X connect 4 0 7 0;
#X connect 5 0 13 3;
#X connect 6 0 10 1;
#X connect 6 0 13 7;
#X connect 7 0 13 4;
#X connect 8 0 11 0;
#X connect 8 0 13 1;
#X connect 9 0 11 1;
#X connect 9 0 13 2;
#X connect 10 0 13 6;
#X connect 11 0 10 0;
#X connect 11 0 13 5;
#X connect 12 0 13 0;
#X connect 13 0 14 0;
#X connect 14 0 15 0;
#X connect 15 0 23 0;
#X connect 16 0 12 0;
#X restore 169 133 pd ADSR;
#X obj 77 250 *~;
#N canvas 16 240 1366 686 selascii 0;
#X floatatom 210 38 5 0 0 0 - - -, f 5;
#X obj 210 14 key;
#X obj 210 156 outlet;
#X floatatom 210 122 5 0 0 0 - - -, f 5;
#X text 86 119 MIDI output;
#X text 70 32 ascii input;
#X msg 210 91 296;
#X obj 210 63 sel 115;
#X connect 0 0 7 0;
#X connect 1 0 0 0;
#X connect 3 0 2 0;
#X connect 6 0 3 0;
#X connect 7 0 6 0;
#X restore 79 90 pd selascii;
#X obj 54 39 inlet;
#X obj 95 36 inlet;
#X obj 142 36 inlet;
#X obj 191 35 inlet;
#X obj 246 34 inlet;
#X obj 83 284 outlet~;
#X floatatom 79 126 5 0 0 0 - - -, f 5;
#X obj 311 41 inlet~;
#N canvas 343 203 450 300 generator 0;
#X obj 130 46 inlet;
#X obj 129 241 outlet~;
#X obj 232 28 inlet~;
#X floatatom 130 72 5 0 0 0 - - -, f 5;
#X obj 130 203 *~;
#X text 88 2 Sound osc generator;
#N canvas 644 220 450 300 osci 0;
#X obj 87 23 inlet;
#X obj 192 22 inlet;
#X obj 93 208 outlet~;
#X obj 218 203 outlet;
#X obj 46 54 *~ 2;
#X obj 87 129 *~;
#X obj 52 91 osc~;
#X obj 120 93 osc~;
#X obj 217 68 key;
#X obj 215 99 sel 120;
#X msg 180 124 1;
#X msg 238 138 0;
#X obj 112 164 *~;
#X floatatom 157 150 5 0 0 0 - - -, f 5;
#X floatatom 231 168 5 0 0 0 - - -, f 5;
#X connect 0 0 4 0;
#X connect 0 0 7 0;
#X connect 1 0 12 1;
#X connect 4 0 6 0;
#X connect 5 0 12 0;
#X connect 6 0 5 0;
#X connect 7 0 5 1;
#X connect 8 0 9 0;
#X connect 9 0 10 0;
#X connect 9 0 11 0;
#X connect 10 0 13 0;
#X connect 11 0 14 0;
#X connect 12 0 2 0;
#X connect 13 0 12 1;
#X connect 14 0 3 0;
#X restore 127 114 pd osci;
#N canvas 591 272 450 300 disto 0;
#X obj 97 33 inlet;
#X obj 202 32 inlet;
#X obj 115 223 outlet~;
#X obj 228 213 outlet;
#X obj 227 78 key;
#X msg 190 134 1;
#X msg 248 148 0;
#X obj 122 174 *~;
#X floatatom 167 160 5 0 0 0 - - -, f 5;
#X floatatom 241 178 5 0 0 0 - - -, f 5;
#X obj 97 80 square~;
#X obj 225 109 sel 99;
#X connect 0 0 10 0;
#X connect 1 0 7 1;
#X connect 4 0 11 0;
#X connect 5 0 8 0;
#X connect 6 0 9 0;
#X connect 7 0 2 0;
#X connect 8 0 7 1;
#X connect 9 0 3 0;
#X connect 10 0 7 0;
#X connect 11 0 5 0;
#X connect 11 0 6 0;
#X restore 231 192 pd disto;
#N canvas 700 385 450 300 saw 0;
#X obj 107 43 inlet;
#X obj 212 42 inlet;
#X obj 113 228 outlet~;
#X obj 238 223 outlet;
#X obj 237 88 key;
#X msg 200 144 1;
#X msg 258 158 0;
#X obj 132 184 *~;
#X floatatom 177 170 5 0 0 0 - - -, f 5;
#X floatatom 251 188 5 0 0 0 - - -, f 5;
#X obj 108 82 phasor~;
#X obj 235 119 sel 118;
#X connect 0 0 10 0;
#X connect 1 0 7 1;
#X connect 4 0 11 0;
#X connect 5 0 8 0;
#X connect 6 0 9 0;
#X connect 7 0 2 0;
#X connect 8 0 7 1;
#X connect 9 0 3 0;
#X connect 10 0 7 0;
#X connect 11 0 5 0;
#X connect 11 0 6 0;
#X restore 299 113 pd saw;
#X connect 0 0 3 0;
#X connect 2 0 4 1;
#X connect 3 0 6 0;
#X connect 3 0 7 0;
#X connect 3 0 8 0;
#X connect 4 0 1 0;
#X connect 6 0 4 0;
#X connect 6 1 7 1;
#X connect 6 1 8 1;
#X connect 7 0 4 0;
#X connect 7 1 6 1;
#X connect 7 1 8 1;
#X connect 8 0 4 0;
#X connect 8 1 7 1;
#X connect 8 1 6 1;
#X restore 76 162 pd generator;
#X connect 0 0 1 1;
#X connect 1 0 8 0;
#X connect 2 0 0 0;
#X connect 2 0 9 0;
#X connect 3 0 0 1;
#X connect 4 0 0 2;
#X connect 5 0 0 3;
#X connect 6 0 0 4;
#X connect 7 0 0 5;
#X connect 9 0 11 0;
#X connect 10 0 11 1;
#X connect 11 0 1 0;
#X restore 158 118 pd note;
#X obj 449 314 outlet~;
#X obj 857 27 inlet~;
#N canvas 434 97 450 300 note 1;
#N canvas 183 98 667 670 ADSR 0;
#X obj 99 58 inlet;
#X obj 44 60 inlet;
#X obj 149 59 inlet;
#X obj 206 58 inlet;
#X obj 270 58 inlet;
#X floatatom 149 108 5 0 0 0 - - -, f 5;
#X floatatom 206 110 5 0 0 0 - - -, f 5;
#X floatatom 270 108 5 0 0 0 - - -, f 5;
#X floatatom 44 107 5 0 0 0 - - -, f 5;
#X floatatom 99 109 5 0 0 0 - - -, f 5;
#X obj 149 244 +;
#X obj 116 186 +;
#X obj 10 249 bng 15 250 50 0 empty empty empty 17 7 0 10 -262144 -1
-1;
#X obj 73 334 pack f f f f f f f f;
#X msg 73 404 1 \$2 \, \$4 \$3 \$2 \, \$4 \$8 \$6 \, 0 \$5 \$7;
#X obj 73 466 vline~;
#X obj -29 59 inlet;
#X text -31 31 ascii;
#X text 44 30 Attack;
#X text 102 18 Decay;
#X text 135 36 Decay Level;
#X text 202 18 Sustain;
#X text 268 29 Release;
#X obj 69 546 outlet~;
#X connect 0 0 9 0;
#X connect 1 0 8 0;
#X connect 2 0 5 0;
#X connect 3 0 6 0;
#X connect 4 0 7 0;
#X connect 5 0 13 3;
#X connect 6 0 10 1;
#X connect 6 0 13 7;
#X connect 7 0 13 4;
#X connect 8 0 11 0;
#X connect 8 0 13 1;
#X connect 9 0 11 1;
#X connect 9 0 13 2;
#X connect 10 0 13 6;
#X connect 11 0 10 0;
#X connect 11 0 13 5;
#X connect 12 0 13 0;
#X connect 13 0 14 0;
#X connect 14 0 15 0;
#X connect 15 0 23 0;
#X connect 16 0 12 0;
#X restore 125 132 pd ADSR;
#X obj 77 250 *~;
#N canvas 0 94 1366 674 selascii 0;
#X floatatom 210 38 5 0 0 0 - - -, f 5;
#X obj 210 14 key;
#X obj 210 156 outlet;
#X floatatom 210 122 5 0 0 0 - - -, f 5;
#X text 86 119 MIDI output;
#X text 70 32 ascii input;
#X obj 210 63 sel 113;
#X msg 210 91 264;
#X connect 0 0 6 0;
#X connect 1 0 0 0;
#X connect 3 0 2 0;
#X connect 6 0 7 0;
#X connect 7 0 3 0;
#X restore 10 84 pd selascii;
#X obj 54 39 inlet;
#X obj 95 36 inlet;
#X obj 142 36 inlet;
#X obj 191 35 inlet;
#X obj 246 34 inlet;
#X obj 83 284 outlet~;
#X floatatom 30 128 5 0 0 0 - - -, f 5;
#X obj 311 41 inlet~;
#N canvas 61 183 450 300 generator 1;
#X obj 130 46 inlet;
#X obj 129 241 outlet~;
#X obj 232 28 inlet~;
#X floatatom 130 72 5 0 0 0 - - -, f 5;
#X obj 130 203 *~;
#X text 88 2 Sound osc generator;
#N canvas 644 220 450 300 osci 1;
#X obj 87 23 inlet;
#X obj 192 22 inlet;
#X obj 93 208 outlet~;
#X obj 218 203 outlet;
#X obj 46 54 *~ 2;
#X obj 87 129 *~;
#X obj 52 91 osc~;
#X obj 120 93 osc~;
#X obj 217 68 key;
#X obj 215 99 sel 120;
#X msg 180 124 1;
#X msg 238 138 0;
#X obj 112 164 *~;
#X floatatom 157 150 5 0 0 0 - - -, f 5;
#X floatatom 231 168 5 0 0 0 - - -, f 5;
#X connect 0 0 4 0;
#X connect 0 0 7 0;
#X connect 1 0 12 1;
#X connect 4 0 6 0;
#X connect 5 0 12 0;
#X connect 6 0 5 0;
#X connect 7 0 5 1;
#X connect 8 0 9 0;
#X connect 9 0 10 0;
#X connect 9 0 11 0;
#X connect 10 0 13 0;
#X connect 11 0 14 0;
#X connect 12 0 2 0;
#X connect 13 0 12 1;
#X connect 14 0 3 0;
#X restore 127 114 pd osci;
#N canvas 591 272 450 300 disto 1;
#X obj 97 33 inlet;
#X obj 202 32 inlet;
#X obj 115 223 outlet~;
#X obj 228 213 outlet;
#X obj 227 78 key;
#X msg 190 134 1;
#X msg 248 148 0;
#X obj 122 174 *~;
#X floatatom 167 160 5 0 0 0 - - -, f 5;
#X floatatom 241 178 5 0 0 0 - - -, f 5;
#X obj 97 80 square~;
#X obj 225 109 sel 99;
#X connect 0 0 10 0;
#X connect 1 0 7 1;
#X connect 4 0 11 0;
#X connect 5 0 8 0;
#X connect 6 0 9 0;
#X connect 7 0 2 0;
#X connect 8 0 7 1;
#X connect 9 0 3 0;
#X connect 10 0 7 0;
#X connect 11 0 5 0;
#X connect 11 0 6 0;
#X restore 231 192 pd disto;
#N canvas 700 385 450 300 saw 1;
#X obj 107 43 inlet;
#X obj 212 42 inlet;
#X obj 113 228 outlet~;
#X obj 238 223 outlet;
#X obj 237 88 key;
#X msg 200 144 1;
#X msg 258 158 0;
#X obj 132 184 *~;
#X floatatom 177 170 5 0 0 0 - - -, f 5;
#X floatatom 251 188 5 0 0 0 - - -, f 5;
#X obj 108 82 phasor~;
#X obj 235 119 sel 118;
#X connect 0 0 10 0;
#X connect 1 0 7 1;
#X connect 4 0 11 0;
#X connect 5 0 8 0;
#X connect 6 0 9 0;
#X connect 7 0 2 0;
#X connect 8 0 7 1;
#X connect 9 0 3 0;
#X connect 10 0 7 0;
#X connect 11 0 5 0;
#X connect 11 0 6 0;
#X restore 299 113 pd saw;
#X connect 0 0 3 0;
#X connect 2 0 4 1;
#X connect 3 0 6 0;
#X connect 3 0 7 0;
#X connect 3 0 8 0;
#X connect 4 0 1 0;
#X connect 6 0 4 0;
#X connect 6 1 7 1;
#X connect 6 1 8 1;
#X connect 7 0 4 0;
#X connect 7 1 6 1;
#X connect 7 1 8 1;
#X connect 8 0 4 0;
#X connect 8 1 7 1;
#X connect 8 1 6 1;
#X restore 58 179 pd generator;
#X text 107 209 comment;
#X connect 0 0 1 1;
#X connect 1 0 8 0;
#X connect 2 0 0 0;
#X connect 2 0 9 0;
#X connect 3 0 0 1;
#X connect 4 0 0 2;
#X connect 5 0 0 3;
#X connect 6 0 0 4;
#X connect 7 0 0 5;
#X connect 9 0 11 0;
#X connect 10 0 11 1;
#X connect 11 0 1 0;
#X restore 36 118 pd note;
#N canvas 673 170 450 300 note 0;
#N canvas 183 113 667 670 ADSR 0;
#X obj 99 58 inlet;
#X obj 44 60 inlet;
#X obj 149 59 inlet;
#X obj 206 58 inlet;
#X obj 270 58 inlet;
#X floatatom 149 108 5 0 0 0 - - -, f 5;
#X floatatom 206 110 5 0 0 0 - - -, f 5;
#X floatatom 270 108 5 0 0 0 - - -, f 5;
#X floatatom 44 107 5 0 0 0 - - -, f 5;
#X floatatom 99 109 5 0 0 0 - - -, f 5;
#X obj 149 244 +;
#X obj 116 186 +;
#X obj 10 249 bng 15 250 50 0 empty empty empty 17 7 0 10 -262144 -1
-1;
#X obj 73 334 pack f f f f f f f f;
#X msg 73 404 1 \$2 \, \$4 \$3 \$2 \, \$4 \$8 \$6 \, 0 \$5 \$7;
#X obj 73 466 vline~;
#X obj -29 59 inlet;
#X text -31 31 ascii;
#X text 44 30 Attack;
#X text 102 18 Decay;
#X text 135 36 Decay Level;
#X text 202 18 Sustain;
#X text 268 29 Release;
#X obj 69 546 outlet~;
#X connect 0 0 9 0;
#X connect 1 0 8 0;
#X connect 2 0 5 0;
#X connect 3 0 6 0;
#X connect 4 0 7 0;
#X connect 5 0 13 3;
#X connect 6 0 10 1;
#X connect 6 0 13 7;
#X connect 7 0 13 4;
#X connect 8 0 11 0;
#X connect 8 0 13 1;
#X connect 9 0 11 1;
#X connect 9 0 13 2;
#X connect 10 0 13 6;
#X connect 11 0 10 0;
#X connect 11 0 13 5;
#X connect 12 0 13 0;
#X connect 13 0 14 0;
#X connect 14 0 15 0;
#X connect 15 0 23 0;
#X connect 16 0 12 0;
#X restore 169 133 pd ADSR;
#X obj 77 250 *~;
#N canvas 449 233 462 240 selascii 0;
#X floatatom 210 38 5 0 0 0 - - -, f 5;
#X obj 210 14 key;
#X obj 210 156 outlet;
#X floatatom 210 122 5 0 0 0 - - -, f 5;
#X text 86 119 MIDI output;
#X text 70 32 ascii input;
#X obj 210 63 sel 122;
#X msg 210 91 280;
#X connect 0 0 6 0;
#X connect 1 0 0 0;
#X connect 3 0 2 0;
#X connect 6 0 7 0;
#X connect 7 0 3 0;
#X restore 79 90 pd selascii;
#X obj 54 39 inlet;
#X obj 95 36 inlet;
#X obj 142 36 inlet;
#X obj 191 35 inlet;
#X obj 246 34 inlet;
#X obj 83 284 outlet~;
#X floatatom 79 126 5 0 0 0 - - -, f 5;
#X obj 311 41 inlet~;
#N canvas 343 203 450 300 generator 0;
#X obj 130 46 inlet;
#X obj 129 241 outlet~;
#X obj 232 28 inlet~;
#X floatatom 130 72 5 0 0 0 - - -, f 5;
#X obj 130 203 *~;
#X text 88 2 Sound osc generator;
#N canvas 644 220 450 300 osci 0;
#X obj 87 23 inlet;
#X obj 192 22 inlet;
#X obj 93 208 outlet~;
#X obj 218 203 outlet;
#X obj 46 54 *~ 2;
#X obj 87 129 *~;
#X obj 52 91 osc~;
#X obj 120 93 osc~;
#X obj 217 68 key;
#X obj 215 99 sel 120;
#X msg 180 124 1;
#X msg 238 138 0;
#X obj 112 164 *~;
#X floatatom 157 150 5 0 0 0 - - -, f 5;
#X floatatom 231 168 5 0 0 0 - - -, f 5;
#X connect 0 0 4 0;
#X connect 0 0 7 0;
#X connect 1 0 12 1;
#X connect 4 0 6 0;
#X connect 5 0 12 0;
#X connect 6 0 5 0;
#X connect 7 0 5 1;
#X connect 8 0 9 0;
#X connect 9 0 10 0;
#X connect 9 0 11 0;
#X connect 10 0 13 0;
#X connect 11 0 14 0;
#X connect 12 0 2 0;
#X connect 13 0 12 1;
#X connect 14 0 3 0;
#X restore 127 114 pd osci;
#N canvas 591 272 450 300 disto 0;
#X obj 97 33 inlet;
#X obj 202 32 inlet;
#X obj 115 223 outlet~;
#X obj 228 213 outlet;
#X obj 227 78 key;
#X msg 190 134 1;
#X msg 248 148 0;
#X obj 122 174 *~;
#X floatatom 167 160 5 0 0 0 - - -, f 5;
#X floatatom 241 178 5 0 0 0 - - -, f 5;
#X obj 97 80 square~;
#X obj 225 109 sel 99;
#X connect 0 0 10 0;
#X connect 1 0 7 1;
#X connect 4 0 11 0;
#X connect 5 0 8 0;
#X connect 6 0 9 0;
#X connect 7 0 2 0;
#X connect 8 0 7 1;
#X connect 9 0 3 0;
#X connect 10 0 7 0;
#X connect 11 0 5 0;
#X connect 11 0 6 0;
#X restore 231 192 pd disto;
#N canvas 700 385 450 300 saw 0;
#X obj 107 43 inlet;
#X obj 212 42 inlet;
#X obj 113 228 outlet~;
#X obj 238 223 outlet;
#X obj 237 88 key;
#X msg 200 144 1;
#X msg 258 158 0;
#X obj 132 184 *~;
#X floatatom 177 170 5 0 0 0 - - -, f 5;
#X floatatom 251 188 5 0 0 0 - - -, f 5;
#X obj 108 82 phasor~;
#X obj 235 119 sel 118;
#X connect 0 0 10 0;
#X connect 1 0 7 1;
#X connect 4 0 11 0;
#X connect 5 0 8 0;
#X connect 6 0 9 0;
#X connect 7 0 2 0;
#X connect 8 0 7 1;
#X connect 9 0 3 0;
#X connect 10 0 7 0;
#X connect 11 0 5 0;
#X connect 11 0 6 0;
#X restore 299 113 pd saw;
#X connect 0 0 3 0;
#X connect 2 0 4 1;
#X connect 3 0 6 0;
#X connect 3 0 7 0;
#X connect 3 0 8 0;
#X connect 4 0 1 0;
#X connect 6 0 4 0;
#X connect 6 1 7 1;
#X connect 6 1 8 1;
#X connect 7 0 4 0;
#X connect 7 1 6 1;
#X connect 7 1 8 1;
#X connect 8 0 4 0;
#X connect 8 1 7 1;
#X connect 8 1 6 1;
#X restore 74 165 pd generator;
#X connect 0 0 1 1;
#X connect 1 0 8 0;
#X connect 2 0 0 0;
#X connect 2 0 9 0;
#X connect 3 0 0 1;
#X connect 4 0 0 2;
#X connect 5 0 0 3;
#X connect 6 0 0 4;
#X connect 7 0 0 5;
#X connect 9 0 11 0;
#X connect 10 0 11 1;
#X connect 11 0 1 0;
#X restore 98 119 pd note;
#N canvas 809 272 450 300 note 0;
#N canvas 183 113 667 670 ADSR 0;
#X obj 99 58 inlet;
#X obj 44 60 inlet;
#X obj 149 59 inlet;
#X obj 206 58 inlet;
#X obj 270 58 inlet;
#X floatatom 149 108 5 0 0 0 - - -, f 5;
#X floatatom 206 110 5 0 0 0 - - -, f 5;
#X floatatom 270 108 5 0 0 0 - - -, f 5;
#X floatatom 44 107 5 0 0 0 - - -, f 5;
#X floatatom 99 109 5 0 0 0 - - -, f 5;
#X obj 149 244 +;
#X obj 116 186 +;
#X obj 10 249 bng 15 250 50 0 empty empty empty 17 7 0 10 -262144 -1
-1;
#X obj 73 334 pack f f f f f f f f;
#X msg 73 404 1 \$2 \, \$4 \$3 \$2 \, \$4 \$8 \$6 \, 0 \$5 \$7;
#X obj 73 466 vline~;
#X obj -29 59 inlet;
#X text -31 31 ascii;
#X text 44 30 Attack;
#X text 102 18 Decay;
#X text 135 36 Decay Level;
#X text 202 18 Sustain;
#X text 268 29 Release;
#X obj 69 546 outlet~;
#X connect 0 0 9 0;
#X connect 1 0 8 0;
#X connect 2 0 5 0;
#X connect 3 0 6 0;
#X connect 4 0 7 0;
#X connect 5 0 13 3;
#X connect 6 0 10 1;
#X connect 6 0 13 7;
#X connect 7 0 13 4;
#X connect 8 0 11 0;
#X connect 8 0 13 1;
#X connect 9 0 11 1;
#X connect 9 0 13 2;
#X connect 10 0 13 6;
#X connect 11 0 10 0;
#X connect 11 0 13 5;
#X connect 12 0 13 0;
#X connect 13 0 14 0;
#X connect 14 0 15 0;
#X connect 15 0 23 0;
#X connect 16 0 12 0;
#X restore 169 133 pd ADSR;
#X obj 77 250 *~;
#N canvas 259 122 446 295 selascii 0;
#X floatatom 210 38 5 0 0 0 - - -, f 5;
#X obj 210 14 key;
#X obj 210 156 outlet;
#X floatatom 210 122 5 0 0 0 - - -, f 5;
#X text 86 119 MIDI output;
#X text 70 32 ascii input;
#X obj 210 63 sel 101;
#X msg 210 90 312;
#X connect 0 0 6 0;
#X connect 1 0 0 0;
#X connect 3 0 2 0;
#X connect 6 0 7 0;
#X connect 7 0 3 0;
#X restore 79 90 pd selascii;
#X obj 54 39 inlet;
#X obj 95 36 inlet;
#X obj 142 36 inlet;
#X obj 191 35 inlet;
#X obj 246 34 inlet;
#X obj 83 284 outlet~;
#X floatatom 79 126 5 0 0 0 - - -, f 5;
#X obj 311 41 inlet~;
#N canvas 343 203 450 300 generator 0;
#X obj 130 46 inlet;
#X obj 129 241 outlet~;
#X obj 232 28 inlet~;
#X floatatom 130 72 5 0 0 0 - - -, f 5;
#X obj 130 203 *~;
#X text 88 2 Sound osc generator;
#N canvas 644 220 450 300 osci 0;
#X obj 87 23 inlet;
#X obj 192 22 inlet;
#X obj 93 208 outlet~;
#X obj 218 203 outlet;
#X obj 46 54 *~ 2;
#X obj 87 129 *~;
#X obj 52 91 osc~;
#X obj 120 93 osc~;
#X obj 217 68 key;
#X obj 215 99 sel 120;
#X msg 180 124 1;
#X msg 238 138 0;
#X obj 112 164 *~;
#X floatatom 157 150 5 0 0 0 - - -, f 5;
#X floatatom 231 168 5 0 0 0 - - -, f 5;
#X connect 0 0 4 0;
#X connect 0 0 7 0;
#X connect 1 0 12 1;
#X connect 4 0 6 0;
#X connect 5 0 12 0;
#X connect 6 0 5 0;
#X connect 7 0 5 1;
#X connect 8 0 9 0;
#X connect 9 0 10 0;
#X connect 9 0 11 0;
#X connect 10 0 13 0;
#X connect 11 0 14 0;
#X connect 12 0 2 0;
#X connect 13 0 12 1;
#X connect 14 0 3 0;
#X restore 127 114 pd osci;
#N canvas 591 272 450 300 disto 0;
#X obj 97 33 inlet;
#X obj 202 32 inlet;
#X obj 115 223 outlet~;
#X obj 228 213 outlet;
#X obj 227 78 key;
#X msg 190 134 1;
#X msg 248 148 0;
#X obj 122 174 *~;
#X floatatom 167 160 5 0 0 0 - - -, f 5;
#X floatatom 241 178 5 0 0 0 - - -, f 5;
#X obj 97 80 square~;
#X obj 225 109 sel 99;
#X connect 0 0 10 0;
#X connect 1 0 7 1;
#X connect 4 0 11 0;
#X connect 5 0 8 0;
#X connect 6 0 9 0;
#X connect 7 0 2 0;
#X connect 8 0 7 1;
#X connect 9 0 3 0;
#X connect 10 0 7 0;
#X connect 11 0 5 0;
#X connect 11 0 6 0;
#X restore 231 192 pd disto;
#N canvas 700 385 450 300 saw 0;
#X obj 107 43 inlet;
#X obj 212 42 inlet;
#X obj 113 228 outlet~;
#X obj 238 223 outlet;
#X obj 237 88 key;
#X msg 200 144 1;
#X msg 258 158 0;
#X obj 132 184 *~;
#X floatatom 177 170 5 0 0 0 - - -, f 5;
#X floatatom 251 188 5 0 0 0 - - -, f 5;
#X obj 108 82 phasor~;
#X obj 235 119 sel 118;
#X connect 0 0 10 0;
#X connect 1 0 7 1;
#X connect 4 0 11 0;
#X connect 5 0 8 0;
#X connect 6 0 9 0;
#X connect 7 0 2 0;
#X connect 8 0 7 1;
#X connect 9 0 3 0;
#X connect 10 0 7 0;
#X connect 11 0 5 0;
#X connect 11 0 6 0;
#X restore 299 113 pd saw;
#X connect 0 0 3 0;
#X connect 2 0 4 1;
#X connect 3 0 6 0;
#X connect 3 0 7 0;
#X connect 3 0 8 0;
#X connect 4 0 1 0;
#X connect 6 0 4 0;
#X connect 6 1 7 1;
#X connect 6 1 8 1;
#X connect 7 0 4 0;
#X connect 7 1 6 1;
#X connect 7 1 8 1;
#X connect 8 0 4 0;
#X connect 8 1 7 1;
#X connect 8 1 6 1;
#X restore 76 162 pd generator;
#X connect 0 0 1 1;
#X connect 1 0 8 0;
#X connect 2 0 0 0;
#X connect 2 0 9 0;
#X connect 3 0 0 1;
#X connect 4 0 0 2;
#X connect 5 0 0 3;
#X connect 6 0 0 4;
#X connect 7 0 0 5;
#X connect 9 0 11 0;
#X connect 10 0 11 1;
#X connect 11 0 1 0;
#X restore 224 118 pd note;
#N canvas 809 272 450 300 note 0;
#N canvas 183 113 667 670 ADSR 0;
#X obj 99 58 inlet;
#X obj 44 60 inlet;
#X obj 149 59 inlet;
#X obj 206 58 inlet;
#X obj 270 58 inlet;
#X floatatom 149 108 5 0 0 0 - - -, f 5;
#X floatatom 206 110 5 0 0 0 - - -, f 5;
#X floatatom 270 108 5 0 0 0 - - -, f 5;
#X floatatom 44 107 5 0 0 0 - - -, f 5;
#X floatatom 99 109 5 0 0 0 - - -, f 5;
#X obj 149 244 +;
#X obj 116 186 +;
#X obj 10 249 bng 15 250 50 0 empty empty empty 17 7 0 10 -262144 -1
-1;
#X obj 73 334 pack f f f f f f f f;
#X msg 73 404 1 \$2 \, \$4 \$3 \$2 \, \$4 \$8 \$6 \, 0 \$5 \$7;
#X obj 73 466 vline~;
#X obj -29 59 inlet;
#X text -31 31 ascii;
#X text 44 30 Attack;
#X text 102 18 Decay;
#X text 135 36 Decay Level;
#X text 202 18 Sustain;
#X text 268 29 Release;
#X obj 69 546 outlet~;
#X connect 0 0 9 0;
#X connect 1 0 8 0;
#X connect 2 0 5 0;
#X connect 3 0 6 0;
#X connect 4 0 7 0;
#X connect 5 0 13 3;
#X connect 6 0 10 1;
#X connect 6 0 13 7;
#X connect 7 0 13 4;
#X connect 8 0 11 0;
#X connect 8 0 13 1;
#X connect 9 0 11 1;
#X connect 9 0 13 2;
#X connect 10 0 13 6;
#X connect 11 0 10 0;
#X connect 11 0 13 5;
#X connect 12 0 13 0;
#X connect 13 0 14 0;
#X connect 14 0 15 0;
#X connect 15 0 23 0;
#X connect 16 0 12 0;
#X restore 169 133 pd ADSR;
#X obj 77 250 *~;
#N canvas 0 238 1366 686 selascii 0;
#X floatatom 210 38 5 0 0 0 - - -, f 5;
#X obj 210 14 key;
#X obj 210 156 outlet;
#X floatatom 210 122 5 0 0 0 - - -, f 5;
#X text 86 119 MIDI output;
#X text 70 32 ascii input;
#X obj 210 63 sel 100;
#X msg 210 91 328;
#X connect 0 0 6 0;
#X connect 1 0 0 0;
#X connect 3 0 2 0;
#X connect 6 0 7 0;
#X connect 7 0 3 0;
#X restore 79 90 pd selascii;
#X obj 54 39 inlet;
#X obj 95 36 inlet;
#X obj 142 36 inlet;
#X obj 191 35 inlet;
#X obj 246 34 inlet;
#X obj 83 284 outlet~;
#X floatatom 79 126 5 0 0 0 - - -, f 5;
#X obj 311 41 inlet~;
#N canvas 343 203 450 300 generator 0;
#X obj 130 46 inlet;
#X obj 129 241 outlet~;
#X obj 232 28 inlet~;
#X floatatom 130 72 5 0 0 0 - - -, f 5;
#X obj 130 203 *~;
#X text 88 2 Sound osc generator;
#N canvas 644 220 450 300 osci 0;
#X obj 87 23 inlet;
#X obj 192 22 inlet;
#X obj 93 208 outlet~;
#X obj 218 203 outlet;
#X obj 46 54 *~ 2;
#X obj 87 129 *~;
#X obj 52 91 osc~;
#X obj 120 93 osc~;
#X obj 217 68 key;
#X obj 215 99 sel 120;
#X msg 180 124 1;
#X msg 238 138 0;
#X obj 112 164 *~;
#X floatatom 157 150 5 0 0 0 - - -, f 5;
#X floatatom 231 168 5 0 0 0 - - -, f 5;
#X connect 0 0 4 0;
#X connect 0 0 7 0;
#X connect 1 0 12 1;
#X connect 4 0 6 0;
#X connect 5 0 12 0;
#X connect 6 0 5 0;
#X connect 7 0 5 1;
#X connect 8 0 9 0;
#X connect 9 0 10 0;
#X connect 9 0 11 0;
#X connect 10 0 13 0;
#X connect 11 0 14 0;
#X connect 12 0 2 0;
#X connect 13 0 12 1;
#X connect 14 0 3 0;
#X restore 127 114 pd osci;
#N canvas 591 272 450 300 disto 0;
#X obj 97 33 inlet;
#X obj 202 32 inlet;
#X obj 115 223 outlet~;
#X obj 228 213 outlet;
#X obj 227 78 key;
#X msg 190 134 1;
#X msg 248 148 0;
#X obj 122 174 *~;
#X floatatom 167 160 5 0 0 0 - - -, f 5;
#X floatatom 241 178 5 0 0 0 - - -, f 5;
#X obj 97 80 square~;
#X obj 225 109 sel 99;
#X connect 0 0 10 0;
#X connect 1 0 7 1;
#X connect 4 0 11 0;
#X connect 5 0 8 0;
#X connect 6 0 9 0;
#X connect 7 0 2 0;
#X connect 8 0 7 1;
#X connect 9 0 3 0;
#X connect 10 0 7 0;
#X connect 11 0 5 0;
#X connect 11 0 6 0;
#X restore 231 192 pd disto;
#N canvas 700 385 450 300 saw 0;
#X obj 107 43 inlet;
#X obj 212 42 inlet;
#X obj 113 228 outlet~;
#X obj 238 223 outlet;
#X obj 237 88 key;
#X msg 200 144 1;
#X msg 258 158 0;
#X obj 132 184 *~;
#X floatatom 177 170 5 0 0 0 - - -, f 5;
#X floatatom 251 188 5 0 0 0 - - -, f 5;
#X obj 108 82 phasor~;
#X obj 235 119 sel 118;
#X connect 0 0 10 0;
#X connect 1 0 7 1;
#X connect 4 0 11 0;
#X connect 5 0 8 0;
#X connect 6 0 9 0;
#X connect 7 0 2 0;
#X connect 8 0 7 1;
#X connect 9 0 3 0;
#X connect 10 0 7 0;
#X connect 11 0 5 0;
#X connect 11 0 6 0;
#X restore 299 113 pd saw;
#X connect 0 0 3 0;
#X connect 2 0 4 1;
#X connect 3 0 6 0;
#X connect 3 0 7 0;
#X connect 3 0 8 0;
#X connect 4 0 1 0;
#X connect 6 0 4 0;
#X connect 6 1 7 1;
#X connect 6 1 8 1;
#X connect 7 0 4 0;
#X connect 7 1 6 1;
#X connect 7 1 8 1;
#X connect 8 0 4 0;
#X connect 8 1 7 1;
#X connect 8 1 6 1;
#X restore 76 162 pd generator;
#X connect 0 0 1 1;
#X connect 1 0 8 0;
#X connect 2 0 0 0;
#X connect 2 0 9 0;
#X connect 3 0 0 1;
#X connect 4 0 0 2;
#X connect 5 0 0 3;
#X connect 6 0 0 4;
#X connect 7 0 0 5;
#X connect 9 0 11 0;
#X connect 10 0 11 1;
#X connect 11 0 1 0;
#X restore 292 119 pd note;
#N canvas 809 272 450 300 note 0;
#N canvas 183 113 667 670 ADSR 0;
#X obj 99 58 inlet;
#X obj 44 60 inlet;
#X obj 149 59 inlet;
#X obj 206 58 inlet;
#X obj 270 58 inlet;
#X floatatom 149 108 5 0 0 0 - - -, f 5;
#X floatatom 206 110 5 0 0 0 - - -, f 5;
#X floatatom 270 108 5 0 0 0 - - -, f 5;
#X floatatom 44 107 5 0 0 0 - - -, f 5;
#X floatatom 99 109 5 0 0 0 - - -, f 5;
#X obj 149 244 +;
#X obj 116 186 +;
#X obj 10 249 bng 15 250 50 0 empty empty empty 17 7 0 10 -262144 -1
-1;
#X obj 73 334 pack f f f f f f f f;
#X msg 73 404 1 \$2 \, \$4 \$3 \$2 \, \$4 \$8 \$6 \, 0 \$5 \$7;
#X obj 73 466 vline~;
#X obj -29 59 inlet;
#X text -31 31 ascii;
#X text 44 30 Attack;
#X text 102 18 Decay;
#X text 135 36 Decay Level;
#X text 202 18 Sustain;
#X text 268 29 Release;
#X obj 69 546 outlet~;
#X connect 0 0 9 0;
#X connect 1 0 8 0;
#X connect 2 0 5 0;
#X connect 3 0 6 0;
#X connect 4 0 7 0;
#X connect 5 0 13 3;
#X connect 6 0 10 1;
#X connect 6 0 13 7;
#X connect 7 0 13 4;
#X connect 8 0 11 0;
#X connect 8 0 13 1;
#X connect 9 0 11 1;
#X connect 9 0 13 2;
#X connect 10 0 13 6;
#X connect 11 0 10 0;
#X connect 11 0 13 5;
#X connect 12 0 13 0;
#X connect 13 0 14 0;
#X connect 14 0 15 0;
#X connect 15 0 23 0;
#X connect 16 0 12 0;
#X restore 169 133 pd ADSR;
#X obj 77 250 *~;
#N canvas 255 282 474 251 selascii 0;
#X floatatom 210 38 5 0 0 0 - - -, f 5;
#X obj 210 14 key;
#X obj 210 156 outlet;
#X floatatom 210 122 5 0 0 0 - - -, f 5;
#X text 86 119 MIDI output;
#X text 70 32 ascii input;
#X obj 210 63 sel 102;
#X msg 210 91 344;
#X connect 0 0 6 0;
#X connect 1 0 0 0;
#X connect 3 0 2 0;
#X connect 6 0 7 0;
#X connect 7 0 3 0;
#X restore 79 90 pd selascii;
#X obj 54 39 inlet;
#X obj 95 36 inlet;
#X obj 142 36 inlet;
#X obj 191 35 inlet;
#X obj 246 34 inlet;
#X obj 83 284 outlet~;
#X floatatom 79 126 5 0 0 0 - - -, f 5;
#X obj 311 41 inlet~;
#N canvas 467 196 450 300 generator 0;
#X obj 130 46 inlet;
#X obj 129 241 outlet~;
#X obj 232 28 inlet~;
#X floatatom 130 72 5 0 0 0 - - -, f 5;
#X obj 130 203 *~;
#X text 88 2 Sound osc generator;
#N canvas 644 220 450 300 osci 0;
#X obj 87 23 inlet;
#X obj 192 22 inlet;
#X obj 93 208 outlet~;
#X obj 218 203 outlet;
#X obj 46 54 *~ 2;
#X obj 87 129 *~;
#X obj 52 91 osc~;
#X obj 120 93 osc~;
#X obj 217 68 key;
#X obj 215 99 sel 120;
#X msg 180 124 1;
#X msg 238 138 0;
#X obj 112 164 *~;
#X floatatom 157 150 5 0 0 0 - - -, f 5;
#X floatatom 231 168 5 0 0 0 - - -, f 5;
#X connect 0 0 4 0;
#X connect 0 0 7 0;
#X connect 1 0 12 1;
#X connect 4 0 6 0;
#X connect 5 0 12 0;
#X connect 6 0 5 0;
#X connect 7 0 5 1;
#X connect 8 0 9 0;
#X connect 9 0 10 0;
#X connect 9 0 11 0;
#X connect 10 0 13 0;
#X connect 11 0 14 0;
#X connect 12 0 2 0;
#X connect 13 0 12 1;
#X connect 14 0 3 0;
#X restore 127 114 pd osci;
#N canvas 591 272 450 300 disto 0;
#X obj 97 33 inlet;
#X obj 202 32 inlet;
#X obj 115 223 outlet~;
#X obj 228 213 outlet;
#X obj 227 78 key;
#X msg 190 134 1;
#X msg 248 148 0;
#X obj 122 174 *~;
#X floatatom 167 160 5 0 0 0 - - -, f 5;
#X floatatom 241 178 5 0 0 0 - - -, f 5;
#X obj 97 80 square~;
#X obj 225 109 sel 99;
#X connect 0 0 10 0;
#X connect 1 0 7 1;
#X connect 4 0 11 0;
#X connect 5 0 8 0;
#X connect 6 0 9 0;
#X connect 7 0 2 0;
#X connect 8 0 7 1;
#X connect 9 0 3 0;
#X connect 10 0 7 0;
#X connect 11 0 5 0;
#X connect 11 0 6 0;
#X restore 231 192 pd disto;
#N canvas 700 385 450 300 saw 0;
#X obj 107 43 inlet;
#X obj 212 42 inlet;
#X obj 113 228 outlet~;
#X obj 238 223 outlet;
#X obj 237 88 key;
#X msg 200 144 1;
#X msg 258 158 0;
#X obj 132 184 *~;
#X floatatom 177 170 5 0 0 0 - - -, f 5;
#X floatatom 251 188 5 0 0 0 - - -, f 5;
#X obj 108 82 phasor~;
#X obj 235 119 sel 118;
#X connect 0 0 10 0;
#X connect 1 0 7 1;
#X connect 4 0 11 0;
#X connect 5 0 8 0;
#X connect 6 0 9 0;
#X connect 7 0 2 0;
#X connect 8 0 7 1;
#X connect 9 0 3 0;
#X connect 10 0 7 0;
#X connect 11 0 5 0;
#X connect 11 0 6 0;
#X restore 299 113 pd saw;
#X connect 0 0 3 0;
#X connect 2 0 4 1;
#X connect 3 0 6 0;
#X connect 3 0 7 0;
#X connect 3 0 8 0;
#X connect 4 0 1 0;
#X connect 6 0 4 0;
#X connect 6 1 7 1;
#X connect 6 1 8 1;
#X connect 7 0 4 0;
#X connect 7 1 6 1;
#X connect 7 1 8 1;
#X connect 8 0 4 0;
#X connect 8 1 7 1;
#X connect 8 1 6 1;
#X restore 76 162 pd generator;
#X connect 0 0 1 1;
#X connect 1 0 8 0;
#X connect 2 0 0 0;
#X connect 2 0 9 0;
#X connect 3 0 0 1;
#X connect 4 0 0 2;
#X connect 5 0 0 3;
#X connect 6 0 0 4;
#X connect 7 0 0 5;
#X connect 9 0 11 0;
#X connect 10 0 11 1;
#X connect 11 0 1 0;
#X restore 388 122 pd note;
#N canvas 809 272 450 300 note 0;
#N canvas 183 113 667 670 ADSR 0;
#X obj 99 58 inlet;
#X obj 44 60 inlet;
#X obj 149 59 inlet;
#X obj 206 58 inlet;
#X obj 270 58 inlet;
#X floatatom 149 108 5 0 0 0 - - -, f 5;
#X floatatom 206 110 5 0 0 0 - - -, f 5;
#X floatatom 270 108 5 0 0 0 - - -, f 5;
#X floatatom 44 107 5 0 0 0 - - -, f 5;
#X floatatom 99 109 5 0 0 0 - - -, f 5;
#X obj 149 244 +;
#X obj 116 186 +;
#X obj 10 249 bng 15 250 50 0 empty empty empty 17 7 0 10 -262144 -1
-1;
#X obj 73 334 pack f f f f f f f f;
#X msg 73 404 1 \$2 \, \$4 \$3 \$2 \, \$4 \$8 \$6 \, 0 \$5 \$7;
#X obj 73 466 vline~;
#X obj -29 59 inlet;
#X text -31 31 ascii;
#X text 44 30 Attack;
#X text 102 18 Decay;
#X text 135 36 Decay Level;
#X text 202 18 Sustain;
#X text 268 29 Release;
#X obj 69 546 outlet~;
#X connect 0 0 9 0;
#X connect 1 0 8 0;
#X connect 2 0 5 0;
#X connect 3 0 6 0;
#X connect 4 0 7 0;
#X connect 5 0 13 3;
#X connect 6 0 10 1;
#X connect 6 0 13 7;
#X connect 7 0 13 4;
#X connect 8 0 11 0;
#X connect 8 0 13 1;
#X connect 9 0 11 1;
#X connect 9 0 13 2;
#X connect 10 0 13 6;
#X connect 11 0 10 0;
#X connect 11 0 13 5;
#X connect 12 0 13 0;
#X connect 13 0 14 0;
#X connect 14 0 15 0;
#X connect 15 0 23 0;
#X connect 16 0 12 0;
#X restore 169 133 pd ADSR;
#X obj 77 250 *~;
#N canvas 16 240 1366 686 selascii 0;
#X floatatom 210 38 5 0 0 0 - - -, f 5;
#X obj 210 14 key;
#X obj 210 156 outlet;
#X floatatom 210 122 5 0 0 0 - - -, f 5;
#X text 86 119 MIDI output;
#X text 70 32 ascii input;
#X obj 210 63 sel 116;
#X msg 210 91 360;
#X connect 0 0 6 0;
#X connect 1 0 0 0;
#X connect 3 0 2 0;
#X connect 6 0 7 0;
#X connect 7 0 3 0;
#X restore 79 90 pd selascii;
#X obj 54 39 inlet;
#X obj 95 36 inlet;
#X obj 142 36 inlet;
#X obj 191 35 inlet;
#X obj 246 34 inlet;
#X obj 83 284 outlet~;
#X floatatom 79 126 5 0 0 0 - - -, f 5;
#X obj 311 41 inlet~;
#N canvas 343 203 450 300 generator 0;
#X obj 130 46 inlet;
#X obj 129 241 outlet~;
#X obj 232 28 inlet~;
#X floatatom 130 72 5 0 0 0 - - -, f 5;
#X obj 130 203 *~;
#X text 88 2 Sound osc generator;
#N canvas 644 220 450 300 osci 0;
#X obj 87 23 inlet;
#X obj 192 22 inlet;
#X obj 93 208 outlet~;
#X obj 218 203 outlet;
#X obj 46 54 *~ 2;
#X obj 87 129 *~;
#X obj 52 91 osc~;
#X obj 120 93 osc~;
#X obj 217 68 key;
#X obj 215 99 sel 120;
#X msg 180 124 1;
#X msg 238 138 0;
#X obj 112 164 *~;
#X floatatom 157 150 5 0 0 0 - - -, f 5;
#X floatatom 231 168 5 0 0 0 - - -, f 5;
#X connect 0 0 4 0;
#X connect 0 0 7 0;
#X connect 1 0 12 1;
#X connect 4 0 6 0;
#X connect 5 0 12 0;
#X connect 6 0 5 0;
#X connect 7 0 5 1;
#X connect 8 0 9 0;
#X connect 9 0 10 0;
#X connect 9 0 11 0;
#X connect 10 0 13 0;
#X connect 11 0 14 0;
#X connect 12 0 2 0;
#X connect 13 0 12 1;
#X connect 14 0 3 0;
#X restore 127 114 pd osci;
#N canvas 591 272 450 300 disto 0;
#X obj 97 33 inlet;
#X obj 202 32 inlet;
#X obj 115 223 outlet~;
#X obj 228 213 outlet;
#X obj 227 78 key;
#X msg 190 134 1;
#X msg 248 148 0;
#X obj 122 174 *~;
#X floatatom 167 160 5 0 0 0 - - -, f 5;
#X floatatom 241 178 5 0 0 0 - - -, f 5;
#X obj 97 80 square~;
#X obj 225 109 sel 99;
#X connect 0 0 10 0;
#X connect 1 0 7 1;
#X connect 4 0 11 0;
#X connect 5 0 8 0;
#X connect 6 0 9 0;
#X connect 7 0 2 0;
#X connect 8 0 7 1;
#X connect 9 0 3 0;
#X connect 10 0 7 0;
#X connect 11 0 5 0;
#X connect 11 0 6 0;
#X restore 231 192 pd disto;
#N canvas 700 385 450 300 saw 0;
#X obj 107 43 inlet;
#X obj 212 42 inlet;
#X obj 113 228 outlet~;
#X obj 238 223 outlet;
#X obj 237 88 key;
#X msg 200 144 1;
#X msg 258 158 0;
#X obj 132 184 *~;
#X floatatom 177 170 5 0 0 0 - - -, f 5;
#X floatatom 251 188 5 0 0 0 - - -, f 5;
#X obj 108 82 phasor~;
#X obj 235 119 sel 118;
#X connect 0 0 10 0;
#X connect 1 0 7 1;
#X connect 4 0 11 0;
#X connect 5 0 8 0;
#X connect 6 0 9 0;
#X connect 7 0 2 0;
#X connect 8 0 7 1;
#X connect 9 0 3 0;
#X connect 10 0 7 0;
#X connect 11 0 5 0;
#X connect 11 0 6 0;
#X restore 299 113 pd saw;
#X connect 0 0 3 0;
#X connect 2 0 4 1;
#X connect 3 0 6 0;
#X connect 3 0 7 0;
#X connect 3 0 8 0;
#X connect 4 0 1 0;
#X connect 6 0 4 0;
#X connect 6 1 7 1;
#X connect 6 1 8 1;
#X connect 7 0 4 0;
#X connect 7 1 6 1;
#X connect 7 1 8 1;
#X connect 8 0 4 0;
#X connect 8 1 7 1;
#X connect 8 1 6 1;
#X restore 76 162 pd generator;
#X connect 0 0 1 1;
#X connect 1 0 8 0;
#X connect 2 0 0 0;
#X connect 2 0 9 0;
#X connect 3 0 0 1;
#X connect 4 0 0 2;
#X connect 5 0 0 3;
#X connect 6 0 0 4;
#X connect 7 0 0 5;
#X connect 9 0 11 0;
#X connect 10 0 11 1;
#X connect 11 0 1 0;
#X restore 479 124 pd note;
#N canvas 809 272 450 300 note 0;
#N canvas 183 113 667 670 ADSR 0;
#X obj 99 58 inlet;
#X obj 44 60 inlet;
#X obj 149 59 inlet;
#X obj 206 58 inlet;
#X obj 270 58 inlet;
#X floatatom 149 108 5 0 0 0 - - -, f 5;
#X floatatom 206 110 5 0 0 0 - - -, f 5;
#X floatatom 270 108 5 0 0 0 - - -, f 5;
#X floatatom 44 107 5 0 0 0 - - -, f 5;
#X floatatom 99 109 5 0 0 0 - - -, f 5;
#X obj 149 244 +;
#X obj 116 186 +;
#X obj 10 249 bng 15 250 50 0 empty empty empty 17 7 0 10 -262144 -1
-1;
#X obj 73 334 pack f f f f f f f f;
#X msg 73 404 1 \$2 \, \$4 \$3 \$2 \, \$4 \$8 \$6 \, 0 \$5 \$7;
#X obj 73 466 vline~;
#X obj -29 59 inlet;
#X text -31 31 ascii;
#X text 44 30 Attack;
#X text 102 18 Decay;
#X text 135 36 Decay Level;
#X text 202 18 Sustain;
#X text 268 29 Release;
#X obj 69 546 outlet~;
#X connect 0 0 9 0;
#X connect 1 0 8 0;
#X connect 2 0 5 0;
#X connect 3 0 6 0;
#X connect 4 0 7 0;
#X connect 5 0 13 3;
#X connect 6 0 10 1;
#X connect 6 0 13 7;
#X connect 7 0 13 4;
#X connect 8 0 11 0;
#X connect 8 0 13 1;
#X connect 9 0 11 1;
#X connect 9 0 13 2;
#X connect 10 0 13 6;
#X connect 11 0 10 0;
#X connect 11 0 13 5;
#X connect 12 0 13 0;
#X connect 13 0 14 0;
#X connect 14 0 15 0;
#X connect 15 0 23 0;
#X connect 16 0 12 0;
#X restore 169 133 pd ADSR;
#X obj 77 250 *~;
#N canvas 16 240 1366 686 selascii 0;
#X floatatom 210 38 5 0 0 0 - - -, f 5;
#X obj 210 14 key;
#X obj 210 156 outlet;
#X floatatom 210 122 5 0 0 0 - - -, f 5;
#X text 86 119 MIDI output;
#X text 70 32 ascii input;
#X obj 210 63 sel 103;
#X msg 210 91 384;
#X connect 0 0 6 0;
#X connect 1 0 0 0;
#X connect 3 0 2 0;
#X connect 6 0 7 0;
#X connect 7 0 3 0;
#X restore 79 90 pd selascii;
#X obj 54 39 inlet;
#X obj 95 36 inlet;
#X obj 142 36 inlet;
#X obj 191 35 inlet;
#X obj 246 34 inlet;
#X obj 83 284 outlet~;
#X floatatom 79 126 5 0 0 0 - - -, f 5;
#X obj 311 41 inlet~;
#N canvas 343 203 450 300 generator 0;
#X obj 130 46 inlet;
#X obj 129 241 outlet~;
#X obj 232 28 inlet~;
#X floatatom 130 72 5 0 0 0 - - -, f 5;
#X obj 130 203 *~;
#X text 88 2 Sound osc generator;
#N canvas 644 220 450 300 osci 0;
#X obj 87 23 inlet;
#X obj 192 22 inlet;
#X obj 93 208 outlet~;
#X obj 218 203 outlet;
#X obj 46 54 *~ 2;
#X obj 87 129 *~;
#X obj 52 91 osc~;
#X obj 120 93 osc~;
#X obj 217 68 key;
#X obj 215 99 sel 120;
#X msg 180 124 1;
#X msg 238 138 0;
#X obj 112 164 *~;
#X floatatom 157 150 5 0 0 0 - - -, f 5;
#X floatatom 231 168 5 0 0 0 - - -, f 5;
#X connect 0 0 4 0;
#X connect 0 0 7 0;
#X connect 1 0 12 1;
#X connect 4 0 6 0;
#X connect 5 0 12 0;
#X connect 6 0 5 0;
#X connect 7 0 5 1;
#X connect 8 0 9 0;
#X connect 9 0 10 0;
#X connect 9 0 11 0;
#X connect 10 0 13 0;
#X connect 11 0 14 0;
#X connect 12 0 2 0;
#X connect 13 0 12 1;
#X connect 14 0 3 0;
#X restore 127 114 pd osci;
#N canvas 591 272 450 300 disto 0;
#X obj 97 33 inlet;
#X obj 202 32 inlet;
#X obj 115 223 outlet~;
#X obj 228 213 outlet;
#X obj 227 78 key;
#X msg 190 134 1;
#X msg 248 148 0;
#X obj 122 174 *~;
#X floatatom 167 160 5 0 0 0 - - -, f 5;
#X floatatom 241 178 5 0 0 0 - - -, f 5;
#X obj 97 80 square~;
#X obj 225 109 sel 99;
#X connect 0 0 10 0;
#X connect 1 0 7 1;
#X connect 4 0 11 0;
#X connect 5 0 8 0;
#X connect 6 0 9 0;
#X connect 7 0 2 0;
#X connect 8 0 7 1;
#X connect 9 0 3 0;
#X connect 10 0 7 0;
#X connect 11 0 5 0;
#X connect 11 0 6 0;
#X restore 231 192 pd disto;
#N canvas 700 385 450 300 saw 0;
#X obj 107 43 inlet;
#X obj 212 42 inlet;
#X obj 113 228 outlet~;
#X obj 238 223 outlet;
#X obj 237 88 key;
#X msg 200 144 1;
#X msg 258 158 0;
#X obj 132 184 *~;
#X floatatom 177 170 5 0 0 0 - - -, f 5;
#X floatatom 251 188 5 0 0 0 - - -, f 5;
#X obj 108 82 phasor~;
#X obj 235 119 sel 118;
#X connect 0 0 10 0;
#X connect 1 0 7 1;
#X connect 4 0 11 0;
#X connect 5 0 8 0;
#X connect 6 0 9 0;
#X connect 7 0 2 0;
#X connect 8 0 7 1;
#X connect 9 0 3 0;
#X connect 10 0 7 0;
#X connect 11 0 5 0;
#X connect 11 0 6 0;
#X restore 299 113 pd saw;
#X connect 0 0 3 0;
#X connect 2 0 4 1;
#X connect 3 0 6 0;
#X connect 3 0 7 0;
#X connect 3 0 8 0;
#X connect 4 0 1 0;
#X connect 6 0 4 0;
#X connect 6 1 7 1;
#X connect 6 1 8 1;
#X connect 7 0 4 0;
#X connect 7 1 6 1;
#X connect 7 1 8 1;
#X connect 8 0 4 0;
#X connect 8 1 7 1;
#X connect 8 1 6 1;
#X restore 76 162 pd generator;
#X connect 0 0 1 1;
#X connect 1 0 8 0;
#X connect 2 0 0 0;
#X connect 2 0 9 0;
#X connect 3 0 0 1;
#X connect 4 0 0 2;
#X connect 5 0 0 3;
#X connect 6 0 0 4;
#X connect 7 0 0 5;
#X connect 9 0 11 0;
#X connect 10 0 11 1;
#X connect 11 0 1 0;
#X restore 591 125 pd note;
#N canvas 518 247 450 300 note 0;
#N canvas 183 113 667 670 ADSR 0;
#X obj 99 58 inlet;
#X obj 44 60 inlet;
#X obj 149 59 inlet;
#X obj 206 58 inlet;
#X obj 270 58 inlet;
#X floatatom 149 108 5 0 0 0 - - -, f 5;
#X floatatom 206 110 5 0 0 0 - - -, f 5;
#X floatatom 270 108 5 0 0 0 - - -, f 5;
#X floatatom 44 107 5 0 0 0 - - -, f 5;
#X floatatom 99 109 5 0 0 0 - - -, f 5;
#X obj 149 244 +;
#X obj 116 186 +;
#X obj 10 249 bng 15 250 50 0 empty empty empty 17 7 0 10 -262144 -1
-1;
#X obj 73 334 pack f f f f f f f f;
#X msg 73 404 1 \$2 \, \$4 \$3 \$2 \, \$4 \$8 \$6 \, 0 \$5 \$7;
#X obj 73 466 vline~;
#X obj -29 59 inlet;
#X text -31 31 ascii;
#X text 44 30 Attack;
#X text 102 18 Decay;
#X text 135 36 Decay Level;
#X text 202 18 Sustain;
#X text 268 29 Release;
#X obj 69 546 outlet~;
#X connect 0 0 9 0;
#X connect 1 0 8 0;
#X connect 2 0 5 0;
#X connect 3 0 6 0;
#X connect 4 0 7 0;
#X connect 5 0 13 3;
#X connect 6 0 10 1;
#X connect 6 0 13 7;
#X connect 7 0 13 4;
#X connect 8 0 11 0;
#X connect 8 0 13 1;
#X connect 9 0 11 1;
#X connect 9 0 13 2;
#X connect 10 0 13 6;
#X connect 11 0 10 0;
#X connect 11 0 13 5;
#X connect 12 0 13 0;
#X connect 13 0 14 0;
#X connect 14 0 15 0;
#X connect 15 0 23 0;
#X connect 16 0 12 0;
#X restore 169 133 pd ADSR;
#X obj 77 250 *~;
#N canvas 16 240 1366 686 selascii 0;
#X floatatom 210 38 5 0 0 0 - - -, f 5;
#X obj 210 14 key;
#X obj 210 156 outlet;
#X floatatom 210 122 5 0 0 0 - - -, f 5;
#X text 86 119 MIDI output;
#X text 70 32 ascii input;
#X obj 210 63 sel 121;
#X msg 210 91 400;
#X connect 0 0 6 0;
#X connect 1 0 0 0;
#X connect 3 0 2 0;
#X connect 6 0 7 0;
#X connect 7 0 3 0;
#X restore 79 90 pd selascii;
#X obj 54 39 inlet;
#X obj 95 36 inlet;
#X obj 142 36 inlet;
#X obj 191 35 inlet;
#X obj 246 34 inlet;
#X obj 83 284 outlet~;
#X floatatom 79 126 5 0 0 0 - - -, f 5;
#X obj 311 41 inlet~;
#N canvas 343 203 450 300 generator 0;
#X obj 130 46 inlet;
#X obj 129 241 outlet~;
#X obj 232 28 inlet~;
#X floatatom 130 72 5 0 0 0 - - -, f 5;
#X obj 130 203 *~;
#X text 88 2 Sound osc generator;
#N canvas 644 220 450 300 osci 0;
#X obj 87 23 inlet;
#X obj 192 22 inlet;
#X obj 93 208 outlet~;
#X obj 218 203 outlet;
#X obj 46 54 *~ 2;
#X obj 87 129 *~;
#X obj 52 91 osc~;
#X obj 120 93 osc~;
#X obj 217 68 key;
#X obj 215 99 sel 120;
#X msg 180 124 1;
#X msg 238 138 0;
#X obj 112 164 *~;
#X floatatom 157 150 5 0 0 0 - - -, f 5;
#X floatatom 231 168 5 0 0 0 - - -, f 5;
#X connect 0 0 4 0;
#X connect 0 0 7 0;
#X connect 1 0 12 1;
#X connect 4 0 6 0;
#X connect 5 0 12 0;
#X connect 6 0 5 0;
#X connect 7 0 5 1;
#X connect 8 0 9 0;
#X connect 9 0 10 0;
#X connect 9 0 11 0;
#X connect 10 0 13 0;
#X connect 11 0 14 0;
#X connect 12 0 2 0;
#X connect 13 0 12 1;
#X connect 14 0 3 0;
#X restore 127 114 pd osci;
#N canvas 591 272 450 300 disto 0;
#X obj 97 33 inlet;
#X obj 202 32 inlet;
#X obj 115 223 outlet~;
#X obj 228 213 outlet;
#X obj 227 78 key;
#X msg 190 134 1;
#X msg 248 148 0;
#X obj 122 174 *~;
#X floatatom 167 160 5 0 0 0 - - -, f 5;
#X floatatom 241 178 5 0 0 0 - - -, f 5;
#X obj 97 80 square~;
#X obj 225 109 sel 99;
#X connect 0 0 10 0;
#X connect 1 0 7 1;
#X connect 4 0 11 0;
#X connect 5 0 8 0;
#X connect 6 0 9 0;
#X connect 7 0 2 0;
#X connect 8 0 7 1;
#X connect 9 0 3 0;
#X connect 10 0 7 0;
#X connect 11 0 5 0;
#X connect 11 0 6 0;
#X restore 231 192 pd disto;
#N canvas 700 385 450 300 saw 0;
#X obj 107 43 inlet;
#X obj 212 42 inlet;
#X obj 113 228 outlet~;
#X obj 238 223 outlet;
#X obj 237 88 key;
#X msg 200 144 1;
#X msg 258 158 0;
#X obj 132 184 *~;
#X floatatom 177 170 5 0 0 0 - - -, f 5;
#X floatatom 251 188 5 0 0 0 - - -, f 5;
#X obj 108 82 phasor~;
#X obj 235 119 sel 118;
#X connect 0 0 10 0;
#X connect 1 0 7 1;
#X connect 4 0 11 0;
#X connect 5 0 8 0;
#X connect 6 0 9 0;
#X connect 7 0 2 0;
#X connect 8 0 7 1;
#X connect 9 0 3 0;
#X connect 10 0 7 0;
#X connect 11 0 5 0;
#X connect 11 0 6 0;
#X restore 299 113 pd saw;
#X connect 0 0 3 0;
#X connect 2 0 4 1;
#X connect 3 0 6 0;
#X connect 3 0 7 0;
#X connect 3 0 8 0;
#X connect 4 0 1 0;
#X connect 6 0 4 0;
#X connect 6 1 7 1;
#X connect 6 1 8 1;
#X connect 7 0 4 0;
#X connect 7 1 6 1;
#X connect 7 1 8 1;
#X connect 8 0 4 0;
#X connect 8 1 7 1;
#X connect 8 1 6 1;
#X restore 76 162 pd generator;
#X connect 0 0 1 1;
#X connect 1 0 8 0;
#X connect 2 0 0 0;
#X connect 2 0 9 0;
#X connect 3 0 0 1;
#X connect 4 0 0 2;
#X connect 5 0 0 3;
#X connect 6 0 0 4;
#X connect 7 0 0 5;
#X connect 9 0 11 0;
#X connect 10 0 11 1;
#X connect 11 0 1 0;
#X restore 668 125 pd note;
#N canvas 518 247 450 300 note 0;
#N canvas 183 113 667 670 ADSR 0;
#X obj 99 58 inlet;
#X obj 44 60 inlet;
#X obj 149 59 inlet;
#X obj 206 58 inlet;
#X obj 270 58 inlet;
#X floatatom 149 108 5 0 0 0 - - -, f 5;
#X floatatom 206 110 5 0 0 0 - - -, f 5;
#X floatatom 270 108 5 0 0 0 - - -, f 5;
#X floatatom 44 107 5 0 0 0 - - -, f 5;
#X floatatom 99 109 5 0 0 0 - - -, f 5;
#X obj 149 244 +;
#X obj 116 186 +;
#X obj 10 249 bng 15 250 50 0 empty empty empty 17 7 0 10 -262144 -1
-1;
#X obj 73 334 pack f f f f f f f f;
#X msg 73 404 1 \$2 \, \$4 \$3 \$2 \, \$4 \$8 \$6 \, 0 \$5 \$7;
#X obj 73 466 vline~;
#X obj -29 59 inlet;
#X text -31 31 ascii;
#X text 44 30 Attack;
#X text 102 18 Decay;
#X text 135 36 Decay Level;
#X text 202 18 Sustain;
#X text 268 29 Release;
#X obj 69 546 outlet~;
#X connect 0 0 9 0;
#X connect 1 0 8 0;
#X connect 2 0 5 0;
#X connect 3 0 6 0;
#X connect 4 0 7 0;
#X connect 5 0 13 3;
#X connect 6 0 10 1;
#X connect 6 0 13 7;
#X connect 7 0 13 4;
#X connect 8 0 11 0;
#X connect 8 0 13 1;
#X connect 9 0 11 1;
#X connect 9 0 13 2;
#X connect 10 0 13 6;
#X connect 11 0 10 0;
#X connect 11 0 13 5;
#X connect 12 0 13 0;
#X connect 13 0 14 0;
#X connect 14 0 15 0;
#X connect 15 0 23 0;
#X connect 16 0 12 0;
#X restore 169 133 pd ADSR;
#X obj 77 250 *~;
#N canvas 16 240 1366 686 selascii 0;
#X floatatom 210 38 5 0 0 0 - - -, f 5;
#X obj 210 14 key;
#X obj 210 156 outlet;
#X floatatom 210 122 5 0 0 0 - - -, f 5;
#X text 86 119 MIDI output;
#X text 70 32 ascii input;
#X obj 210 63 sel 104;
#X msg 210 91 416;
#X connect 0 0 6 0;
#X connect 1 0 0 0;
#X connect 3 0 2 0;
#X connect 6 0 7 0;
#X connect 7 0 3 0;
#X restore 79 90 pd selascii;
#X obj 54 39 inlet;
#X obj 95 36 inlet;
#X obj 142 36 inlet;
#X obj 191 35 inlet;
#X obj 246 34 inlet;
#X obj 83 284 outlet~;
#X floatatom 79 126 5 0 0 0 - - -, f 5;
#X obj 311 41 inlet~;
#N canvas 343 203 450 300 generator 0;
#X obj 130 46 inlet;
#X obj 129 241 outlet~;
#X obj 232 28 inlet~;
#X floatatom 130 72 5 0 0 0 - - -, f 5;
#X obj 130 203 *~;
#X text 88 2 Sound osc generator;
#N canvas 644 220 450 300 osci 0;
#X obj 87 23 inlet;
#X obj 192 22 inlet;
#X obj 93 208 outlet~;
#X obj 218 203 outlet;
#X obj 46 54 *~ 2;
#X obj 87 129 *~;
#X obj 52 91 osc~;
#X obj 120 93 osc~;
#X obj 217 68 key;
#X obj 215 99 sel 120;
#X msg 180 124 1;
#X msg 238 138 0;
#X obj 112 164 *~;
#X floatatom 157 150 5 0 0 0 - - -, f 5;
#X floatatom 231 168 5 0 0 0 - - -, f 5;
#X connect 0 0 4 0;
#X connect 0 0 7 0;
#X connect 1 0 12 1;
#X connect 4 0 6 0;
#X connect 5 0 12 0;
#X connect 6 0 5 0;
#X connect 7 0 5 1;
#X connect 8 0 9 0;
#X connect 9 0 10 0;
#X connect 9 0 11 0;
#X connect 10 0 13 0;
#X connect 11 0 14 0;
#X connect 12 0 2 0;
#X connect 13 0 12 1;
#X connect 14 0 3 0;
#X restore 127 114 pd osci;
#N canvas 591 272 450 300 disto 0;
#X obj 97 33 inlet;
#X obj 202 32 inlet;
#X obj 115 223 outlet~;
#X obj 228 213 outlet;
#X obj 227 78 key;
#X msg 190 134 1;
#X msg 248 148 0;
#X obj 122 174 *~;
#X floatatom 167 160 5 0 0 0 - - -, f 5;
#X floatatom 241 178 5 0 0 0 - - -, f 5;
#X obj 97 80 square~;
#X obj 225 109 sel 99;
#X connect 0 0 10 0;
#X connect 1 0 7 1;
#X connect 4 0 11 0;
#X connect 5 0 8 0;
#X connect 6 0 9 0;
#X connect 7 0 2 0;
#X connect 8 0 7 1;
#X connect 9 0 3 0;
#X connect 10 0 7 0;
#X connect 11 0 5 0;
#X connect 11 0 6 0;
#X restore 231 192 pd disto;
#N canvas 700 385 450 300 saw 0;
#X obj 107 43 inlet;
#X obj 212 42 inlet;
#X obj 113 228 outlet~;
#X obj 238 223 outlet;
#X obj 237 88 key;
#X msg 200 144 1;
#X msg 258 158 0;
#X obj 132 184 *~;
#X floatatom 177 170 5 0 0 0 - - -, f 5;
#X floatatom 251 188 5 0 0 0 - - -, f 5;
#X obj 108 82 phasor~;
#X obj 235 119 sel 118;
#X connect 0 0 10 0;
#X connect 1 0 7 1;
#X connect 4 0 11 0;
#X connect 5 0 8 0;
#X connect 6 0 9 0;
#X connect 7 0 2 0;
#X connect 8 0 7 1;
#X connect 9 0 3 0;
#X connect 10 0 7 0;
#X connect 11 0 5 0;
#X connect 11 0 6 0;
#X restore 299 113 pd saw;
#X connect 0 0 3 0;
#X connect 2 0 4 1;
#X connect 3 0 6 0;
#X connect 3 0 7 0;
#X connect 3 0 8 0;
#X connect 4 0 1 0;
#X connect 6 0 4 0;
#X connect 6 1 7 1;
#X connect 6 1 8 1;
#X connect 7 0 4 0;
#X connect 7 1 6 1;
#X connect 7 1 8 1;
#X connect 8 0 4 0;
#X connect 8 1 7 1;
#X connect 8 1 6 1;
#X restore 76 162 pd generator;
#X connect 0 0 1 1;
#X connect 1 0 8 0;
#X connect 2 0 0 0;
#X connect 2 0 9 0;
#X connect 3 0 0 1;
#X connect 4 0 0 2;
#X connect 5 0 0 3;
#X connect 6 0 0 4;
#X connect 7 0 0 5;
#X connect 9 0 11 0;
#X connect 10 0 11 1;
#X connect 11 0 1 0;
#X restore 756 120 pd note;
#N canvas 518 247 450 300 note 0;
#N canvas 183 113 667 670 ADSR 0;
#X obj 99 58 inlet;
#X obj 44 60 inlet;
#X obj 149 59 inlet;
#X obj 206 58 inlet;
#X obj 270 58 inlet;
#X floatatom 149 108 5 0 0 0 - - -, f 5;
#X floatatom 206 110 5 0 0 0 - - -, f 5;
#X floatatom 270 108 5 0 0 0 - - -, f 5;
#X floatatom 44 107 5 0 0 0 - - -, f 5;
#X floatatom 99 109 5 0 0 0 - - -, f 5;
#X obj 149 244 +;
#X obj 116 186 +;
#X obj 10 249 bng 15 250 50 0 empty empty empty 17 7 0 10 -262144 -1
-1;
#X obj 73 334 pack f f f f f f f f;
#X msg 73 404 1 \$2 \, \$4 \$3 \$2 \, \$4 \$8 \$6 \, 0 \$5 \$7;
#X obj 73 466 vline~;
#X obj -29 59 inlet;
#X text -31 31 ascii;
#X text 44 30 Attack;
#X text 102 18 Decay;
#X text 135 36 Decay Level;
#X text 202 18 Sustain;
#X text 268 29 Release;
#X obj 69 546 outlet~;
#X connect 0 0 9 0;
#X connect 1 0 8 0;
#X connect 2 0 5 0;
#X connect 3 0 6 0;
#X connect 4 0 7 0;
#X connect 5 0 13 3;
#X connect 6 0 10 1;
#X connect 6 0 13 7;
#X connect 7 0 13 4;
#X connect 8 0 11 0;
#X connect 8 0 13 1;
#X connect 9 0 11 1;
#X connect 9 0 13 2;
#X connect 10 0 13 6;
#X connect 11 0 10 0;
#X connect 11 0 13 5;
#X connect 12 0 13 0;
#X connect 13 0 14 0;
#X connect 14 0 15 0;
#X connect 15 0 23 0;
#X connect 16 0 12 0;
#X restore 169 133 pd ADSR;
#X obj 77 250 *~;
#N canvas 16 240 1366 686 selascii 0;
#X floatatom 210 38 5 0 0 0 - - -, f 5;
#X obj 210 14 key;
#X obj 210 156 outlet;
#X floatatom 210 122 5 0 0 0 - - -, f 5;
#X text 86 119 MIDI output;
#X text 70 32 ascii input;
#X obj 210 63 sel 117;
#X msg 211 91 432;
#X connect 0 0 6 0;
#X connect 1 0 0 0;
#X connect 3 0 2 0;
#X connect 6 0 7 0;
#X connect 7 0 3 0;
#X restore 79 90 pd selascii;
#X obj 54 39 inlet;
#X obj 95 36 inlet;
#X obj 142 36 inlet;
#X obj 191 35 inlet;
#X obj 246 34 inlet;
#X obj 83 284 outlet~;
#X floatatom 79 126 5 0 0 0 - - -, f 5;
#X obj 311 41 inlet~;
#N canvas 343 203 450 300 generator 0;
#X obj 130 46 inlet;
#X obj 129 241 outlet~;
#X obj 232 28 inlet~;
#X floatatom 130 72 5 0 0 0 - - -, f 5;
#X obj 130 203 *~;
#X text 88 2 Sound osc generator;
#N canvas 644 220 450 300 osci 0;
#X obj 87 23 inlet;
#X obj 192 22 inlet;
#X obj 93 208 outlet~;
#X obj 218 203 outlet;
#X obj 46 54 *~ 2;
#X obj 87 129 *~;
#X obj 52 91 osc~;
#X obj 120 93 osc~;
#X obj 217 68 key;
#X obj 215 99 sel 120;
#X msg 180 124 1;
#X msg 238 138 0;
#X obj 112 164 *~;
#X floatatom 157 150 5 0 0 0 - - -, f 5;
#X floatatom 231 168 5 0 0 0 - - -, f 5;
#X connect 0 0 4 0;
#X connect 0 0 7 0;
#X connect 1 0 12 1;
#X connect 4 0 6 0;
#X connect 5 0 12 0;
#X connect 6 0 5 0;
#X connect 7 0 5 1;
#X connect 8 0 9 0;
#X connect 9 0 10 0;
#X connect 9 0 11 0;
#X connect 10 0 13 0;
#X connect 11 0 14 0;
#X connect 12 0 2 0;
#X connect 13 0 12 1;
#X connect 14 0 3 0;
#X restore 127 114 pd osci;
#N canvas 591 272 450 300 disto 0;
#X obj 97 33 inlet;
#X obj 202 32 inlet;
#X obj 115 223 outlet~;
#X obj 228 213 outlet;
#X obj 227 78 key;
#X msg 190 134 1;
#X msg 248 148 0;
#X obj 122 174 *~;
#X floatatom 167 160 5 0 0 0 - - -, f 5;
#X floatatom 241 178 5 0 0 0 - - -, f 5;
#X obj 97 80 square~;
#X obj 225 109 sel 99;
#X connect 0 0 10 0;
#X connect 1 0 7 1;
#X connect 4 0 11 0;
#X connect 5 0 8 0;
#X connect 6 0 9 0;
#X connect 7 0 2 0;
#X connect 8 0 7 1;
#X connect 9 0 3 0;
#X connect 10 0 7 0;
#X connect 11 0 5 0;
#X connect 11 0 6 0;
#X restore 231 192 pd disto;
#N canvas 700 385 450 300 saw 0;
#X obj 107 43 inlet;
#X obj 212 42 inlet;
#X obj 113 228 outlet~;
#X obj 238 223 outlet;
#X obj 237 88 key;
#X msg 200 144 1;
#X msg 258 158 0;
#X obj 132 184 *~;
#X floatatom 177 170 5 0 0 0 - - -, f 5;
#X floatatom 251 188 5 0 0 0 - - -, f 5;
#X obj 108 82 phasor~;
#X obj 235 119 sel 118;
#X connect 0 0 10 0;
#X connect 1 0 7 1;
#X connect 4 0 11 0;
#X connect 5 0 8 0;
#X connect 6 0 9 0;
#X connect 7 0 2 0;
#X connect 8 0 7 1;
#X connect 9 0 3 0;
#X connect 10 0 7 0;
#X connect 11 0 5 0;
#X connect 11 0 6 0;
#X restore 299 113 pd saw;
#X connect 0 0 3 0;
#X connect 2 0 4 1;
#X connect 3 0 6 0;
#X connect 3 0 7 0;
#X connect 3 0 8 0;
#X connect 4 0 1 0;
#X connect 6 0 4 0;
#X connect 6 1 7 1;
#X connect 6 1 8 1;
#X connect 7 0 4 0;
#X connect 7 1 6 1;
#X connect 7 1 8 1;
#X connect 8 0 4 0;
#X connect 8 1 7 1;
#X connect 8 1 6 1;
#X restore 76 162 pd generator;
#X connect 0 0 1 1;
#X connect 1 0 8 0;
#X connect 2 0 0 0;
#X connect 2 0 9 0;
#X connect 3 0 0 1;
#X connect 4 0 0 2;
#X connect 5 0 0 3;
#X connect 6 0 0 4;
#X connect 7 0 0 5;
#X connect 9 0 11 0;
#X connect 10 0 11 1;
#X connect 11 0 1 0;
#X restore 837 119 pd note;
#N canvas 518 247 450 300 note 0;
#N canvas 183 113 667 670 ADSR 0;
#X obj 99 58 inlet;
#X obj 44 60 inlet;
#X obj 149 59 inlet;
#X obj 206 58 inlet;
#X obj 270 58 inlet;
#X floatatom 149 108 5 0 0 0 - - -, f 5;
#X floatatom 206 110 5 0 0 0 - - -, f 5;
#X floatatom 270 108 5 0 0 0 - - -, f 5;
#X floatatom 44 107 5 0 0 0 - - -, f 5;
#X floatatom 99 109 5 0 0 0 - - -, f 5;
#X obj 149 244 +;
#X obj 116 186 +;
#X obj 10 249 bng 15 250 50 0 empty empty empty 17 7 0 10 -262144 -1
-1;
#X obj 73 334 pack f f f f f f f f;
#X msg 73 404 1 \$2 \, \$4 \$3 \$2 \, \$4 \$8 \$6 \, 0 \$5 \$7;
#X obj 73 466 vline~;
#X obj -29 59 inlet;
#X text -31 31 ascii;
#X text 44 30 Attack;
#X text 102 18 Decay;
#X text 135 36 Decay Level;
#X text 202 18 Sustain;
#X text 268 29 Release;
#X obj 69 546 outlet~;
#X connect 0 0 9 0;
#X connect 1 0 8 0;
#X connect 2 0 5 0;
#X connect 3 0 6 0;
#X connect 4 0 7 0;
#X connect 5 0 13 3;
#X connect 6 0 10 1;
#X connect 6 0 13 7;
#X connect 7 0 13 4;
#X connect 8 0 11 0;
#X connect 8 0 13 1;
#X connect 9 0 11 1;
#X connect 9 0 13 2;
#X connect 10 0 13 6;
#X connect 11 0 10 0;
#X connect 11 0 13 5;
#X connect 12 0 13 0;
#X connect 13 0 14 0;
#X connect 14 0 15 0;
#X connect 15 0 23 0;
#X connect 16 0 12 0;
#X restore 169 133 pd ADSR;
#X obj 77 250 *~;
#N canvas 16 240 1366 686 selascii 0;
#X floatatom 210 38 5 0 0 0 - - -, f 5;
#X obj 210 14 key;
#X obj 210 156 outlet;
#X floatatom 210 122 5 0 0 0 - - -, f 5;
#X text 86 119 MIDI output;
#X text 70 32 ascii input;
#X msg 210 91 448;
#X obj 210 63 sel 106;
#X connect 0 0 7 0;
#X connect 1 0 0 0;
#X connect 3 0 2 0;
#X connect 6 0 3 0;
#X connect 7 0 6 0;
#X restore 79 90 pd selascii;
#X obj 54 39 inlet;
#X obj 95 36 inlet;
#X obj 142 36 inlet;
#X obj 191 35 inlet;
#X obj 246 34 inlet;
#X obj 83 284 outlet~;
#X floatatom 79 126 5 0 0 0 - - -, f 5;
#X obj 311 41 inlet~;
#N canvas 343 203 450 300 generator 0;
#X obj 130 46 inlet;
#X obj 129 241 outlet~;
#X obj 232 28 inlet~;
#X floatatom 130 72 5 0 0 0 - - -, f 5;
#X obj 130 203 *~;
#X text 88 2 Sound osc generator;
#N canvas 644 220 450 300 osci 0;
#X obj 87 23 inlet;
#X obj 192 22 inlet;
#X obj 93 208 outlet~;
#X obj 218 203 outlet;
#X obj 46 54 *~ 2;
#X obj 87 129 *~;
#X obj 52 91 osc~;
#X obj 120 93 osc~;
#X obj 217 68 key;
#X obj 215 99 sel 120;
#X msg 180 124 1;
#X msg 238 138 0;
#X obj 112 164 *~;
#X floatatom 157 150 5 0 0 0 - - -, f 5;
#X floatatom 231 168 5 0 0 0 - - -, f 5;
#X connect 0 0 4 0;
#X connect 0 0 7 0;
#X connect 1 0 12 1;
#X connect 4 0 6 0;
#X connect 5 0 12 0;
#X connect 6 0 5 0;
#X connect 7 0 5 1;
#X connect 8 0 9 0;
#X connect 9 0 10 0;
#X connect 9 0 11 0;
#X connect 10 0 13 0;
#X connect 11 0 14 0;
#X connect 12 0 2 0;
#X connect 13 0 12 1;
#X connect 14 0 3 0;
#X restore 127 114 pd osci;
#N canvas 591 272 450 300 disto 0;
#X obj 97 33 inlet;
#X obj 202 32 inlet;
#X obj 115 223 outlet~;
#X obj 228 213 outlet;
#X obj 227 78 key;
#X msg 190 134 1;
#X msg 248 148 0;
#X obj 122 174 *~;
#X floatatom 167 160 5 0 0 0 - - -, f 5;
#X floatatom 241 178 5 0 0 0 - - -, f 5;
#X obj 97 80 square~;
#X obj 225 109 sel 99;
#X connect 0 0 10 0;
#X connect 1 0 7 1;
#X connect 4 0 11 0;
#X connect 5 0 8 0;
#X connect 6 0 9 0;
#X connect 7 0 2 0;
#X connect 8 0 7 1;
#X connect 9 0 3 0;
#X connect 10 0 7 0;
#X connect 11 0 5 0;
#X connect 11 0 6 0;
#X restore 231 192 pd disto;
#N canvas 700 385 450 300 saw 0;
#X obj 107 43 inlet;
#X obj 212 42 inlet;
#X obj 113 228 outlet~;
#X obj 238 223 outlet;
#X obj 237 88 key;
#X msg 200 144 1;
#X msg 258 158 0;
#X obj 132 184 *~;
#X floatatom 177 170 5 0 0 0 - - -, f 5;
#X floatatom 251 188 5 0 0 0 - - -, f 5;
#X obj 108 82 phasor~;
#X obj 235 119 sel 118;
#X connect 0 0 10 0;
#X connect 1 0 7 1;
#X connect 4 0 11 0;
#X connect 5 0 8 0;
#X connect 6 0 9 0;
#X connect 7 0 2 0;
#X connect 8 0 7 1;
#X connect 9 0 3 0;
#X connect 10 0 7 0;
#X connect 11 0 5 0;
#X connect 11 0 6 0;
#X restore 299 113 pd saw;
#X connect 0 0 3 0;
#X connect 2 0 4 1;
#X connect 3 0 6 0;
#X connect 3 0 7 0;
#X connect 3 0 8 0;
#X connect 4 0 1 0;
#X connect 6 0 4 0;
#X connect 6 1 7 1;
#X connect 6 1 8 1;
#X connect 7 0 4 0;
#X connect 7 1 6 1;
#X connect 7 1 8 1;
#X connect 8 0 4 0;
#X connect 8 1 7 1;
#X connect 8 1 6 1;
#X restore 76 162 pd generator;
#X connect 0 0 1 1;
#X connect 1 0 8 0;
#X connect 2 0 0 0;
#X connect 2 0 9 0;
#X connect 3 0 0 1;
#X connect 4 0 0 2;
#X connect 5 0 0 3;
#X connect 6 0 0 4;
#X connect 7 0 0 5;
#X connect 9 0 11 0;
#X connect 10 0 11 1;
#X connect 11 0 1 0;
#X restore 906 119 pd note;
#N canvas 518 247 450 300 note 0;
#N canvas 183 113 667 670 ADSR 0;
#X obj 99 58 inlet;
#X obj 44 60 inlet;
#X obj 149 59 inlet;
#X obj 206 58 inlet;
#X obj 270 58 inlet;
#X floatatom 149 108 5 0 0 0 - - -, f 5;
#X floatatom 206 110 5 0 0 0 - - -, f 5;
#X floatatom 270 108 5 0 0 0 - - -, f 5;
#X floatatom 44 107 5 0 0 0 - - -, f 5;
#X floatatom 99 109 5 0 0 0 - - -, f 5;
#X obj 149 244 +;
#X obj 116 186 +;
#X obj 10 249 bng 15 250 50 0 empty empty empty 17 7 0 10 -262144 -1
-1;
#X obj 73 334 pack f f f f f f f f;
#X msg 73 404 1 \$2 \, \$4 \$3 \$2 \, \$4 \$8 \$6 \, 0 \$5 \$7;
#X obj 73 466 vline~;
#X obj -29 59 inlet;
#X text -31 31 ascii;
#X text 44 30 Attack;
#X text 102 18 Decay;
#X text 135 36 Decay Level;
#X text 202 18 Sustain;
#X text 268 29 Release;
#X obj 69 546 outlet~;
#X connect 0 0 9 0;
#X connect 1 0 8 0;
#X connect 2 0 5 0;
#X connect 3 0 6 0;
#X connect 4 0 7 0;
#X connect 5 0 13 3;
#X connect 6 0 10 1;
#X connect 6 0 13 7;
#X connect 7 0 13 4;
#X connect 8 0 11 0;
#X connect 8 0 13 1;
#X connect 9 0 11 1;
#X connect 9 0 13 2;
#X connect 10 0 13 6;
#X connect 11 0 10 0;
#X connect 11 0 13 5;
#X connect 12 0 13 0;
#X connect 13 0 14 0;
#X connect 14 0 15 0;
#X connect 15 0 23 0;
#X connect 16 0 12 0;
#X restore 169 133 pd ADSR;
#X obj 77 250 *~;
#N canvas 16 240 1366 686 selascii 0;
#X floatatom 210 38 5 0 0 0 - - -, f 5;
#X obj 210 14 key;
#X obj 210 156 outlet;
#X floatatom 210 122 5 0 0 0 - - -, f 5;
#X text 86 119 MIDI output;
#X text 70 32 ascii input;
#X msg 210 91 464;
#X obj 210 63 sel 107;
#X connect 0 0 7 0;
#X connect 1 0 0 0;
#X connect 3 0 2 0;
#X connect 6 0 3 0;
#X connect 7 0 6 0;
#X restore 79 90 pd selascii;
#X obj 54 39 inlet;
#X obj 95 36 inlet;
#X obj 142 36 inlet;
#X obj 191 35 inlet;
#X obj 246 34 inlet;
#X obj 83 284 outlet~;
#X floatatom 79 126 5 0 0 0 - - -, f 5;
#X obj 311 41 inlet~;
#N canvas 343 203 450 300 generator 0;
#X obj 130 46 inlet;
#X obj 129 241 outlet~;
#X obj 232 28 inlet~;
#X floatatom 130 72 5 0 0 0 - - -, f 5;
#X obj 130 203 *~;
#X text 88 2 Sound osc generator;
#N canvas 644 220 450 300 osci 0;
#X obj 87 23 inlet;
#X obj 192 22 inlet;
#X obj 93 208 outlet~;
#X obj 218 203 outlet;
#X obj 46 54 *~ 2;
#X obj 87 129 *~;
#X obj 52 91 osc~;
#X obj 120 93 osc~;
#X obj 217 68 key;
#X obj 215 99 sel 120;
#X msg 180 124 1;
#X msg 238 138 0;
#X obj 112 164 *~;
#X floatatom 157 150 5 0 0 0 - - -, f 5;
#X floatatom 231 168 5 0 0 0 - - -, f 5;
#X connect 0 0 4 0;
#X connect 0 0 7 0;
#X connect 1 0 12 1;
#X connect 4 0 6 0;
#X connect 5 0 12 0;
#X connect 6 0 5 0;
#X connect 7 0 5 1;
#X connect 8 0 9 0;
#X connect 9 0 10 0;
#X connect 9 0 11 0;
#X connect 10 0 13 0;
#X connect 11 0 14 0;
#X connect 12 0 2 0;
#X connect 13 0 12 1;
#X connect 14 0 3 0;
#X restore 127 114 pd osci;
#N canvas 591 272 450 300 disto 0;
#X obj 97 33 inlet;
#X obj 202 32 inlet;
#X obj 115 223 outlet~;
#X obj 228 213 outlet;
#X obj 227 78 key;
#X msg 190 134 1;
#X msg 248 148 0;
#X obj 122 174 *~;
#X floatatom 167 160 5 0 0 0 - - -, f 5;
#X floatatom 241 178 5 0 0 0 - - -, f 5;
#X obj 97 80 square~;
#X obj 225 109 sel 99;
#X connect 0 0 10 0;
#X connect 1 0 7 1;
#X connect 4 0 11 0;
#X connect 5 0 8 0;
#X connect 6 0 9 0;
#X connect 7 0 2 0;
#X connect 8 0 7 1;
#X connect 9 0 3 0;
#X connect 10 0 7 0;
#X connect 11 0 5 0;
#X connect 11 0 6 0;
#X restore 231 192 pd disto;
#N canvas 700 385 450 300 saw 0;
#X obj 107 43 inlet;
#X obj 212 42 inlet;
#X obj 113 228 outlet~;
#X obj 238 223 outlet;
#X obj 237 88 key;
#X msg 200 144 1;
#X msg 258 158 0;
#X obj 132 184 *~;
#X floatatom 177 170 5 0 0 0 - - -, f 5;
#X floatatom 251 188 5 0 0 0 - - -, f 5;
#X obj 108 82 phasor~;
#X obj 235 119 sel 118;
#X connect 0 0 10 0;
#X connect 1 0 7 1;
#X connect 4 0 11 0;
#X connect 5 0 8 0;
#X connect 6 0 9 0;
#X connect 7 0 2 0;
#X connect 8 0 7 1;
#X connect 9 0 3 0;
#X connect 10 0 7 0;
#X connect 11 0 5 0;
#X connect 11 0 6 0;
#X restore 299 113 pd saw;
#X connect 0 0 3 0;
#X connect 2 0 4 1;
#X connect 3 0 6 0;
#X connect 3 0 7 0;
#X connect 3 0 8 0;
#X connect 4 0 1 0;
#X connect 6 0 4 0;
#X connect 6 1 7 1;
#X connect 6 1 8 1;
#X connect 7 0 4 0;
#X connect 7 1 6 1;
#X connect 7 1 8 1;
#X connect 8 0 4 0;
#X connect 8 1 7 1;
#X connect 8 1 6 1;
#X restore 76 162 pd generator;
#X connect 0 0 1 1;
#X connect 1 0 8 0;
#X connect 2 0 0 0;
#X connect 2 0 9 0;
#X connect 3 0 0 1;
#X connect 4 0 0 2;
#X connect 5 0 0 3;
#X connect 6 0 0 4;
#X connect 7 0 0 5;
#X connect 9 0 11 0;
#X connect 10 0 11 1;
#X connect 11 0 1 0;
#X restore 979 122 pd note;
#N canvas 0 0 1366 686 add 0;
#X obj 19 29 inlet~;
#X obj 68 29 inlet~;
#X obj 115 29 inlet~;
#X obj 376 28 inlet~;
#X obj 423 29 inlet~;
#X obj 635 30 inlet~;
#X obj 584 30 inlet~;
#X obj 534 30 inlet~;
#X obj 474 29 inlet~;
#X obj 166 28 inlet~;
#X obj 219 27 inlet~;
#X obj 273 27 inlet~;
#X obj 327 28 inlet~;
#X obj 46 85 +~;
#X obj 146 86 +~;
#X obj 248 98 +~;
#X obj 352 98 +~;
#X obj 557 96 +~;
#X obj 444 99 +~;
#X obj 88 137 +~;
#X obj 289 132 +~;
#X obj 497 133 +~;
#X obj 193 187 +~;
#X obj 522 188 +~;
#X obj 318 237 +~;
#X obj 319 277 /~ 13;
#X obj 318 354 outlet~;
#X connect 0 0 13 0;
#X connect 1 0 13 1;
#X connect 2 0 14 0;
#X connect 3 0 16 1;
#X connect 4 0 18 0;
#X connect 5 0 23 1;
#X connect 6 0 17 1;
#X connect 7 0 17 0;
#X connect 8 0 18 1;
#X connect 9 0 14 1;
#X connect 10 0 15 0;
#X connect 11 0 15 1;
#X connect 12 0 16 0;
#X connect 13 0 19 0;
#X connect 14 0 19 1;
#X connect 15 0 20 0;
#X connect 16 0 20 1;
#X connect 17 0 21 1;
#X connect 18 0 21 0;
#X connect 19 0 22 0;
#X connect 20 0 22 1;
#X connect 21 0 23 0;
#X connect 22 0 24 0;
#X connect 23 0 24 1;
#X connect 24 0 25 0;
#X connect 25 0 26 0;
#X coords 0 -1 1 1 120 10 1 50 100;
#X restore 451 261 pd add;
#X connect 0 0 8 0;
#X connect 0 0 5 0;
#X connect 0 0 9 0;
#X connect 0 0 10 0;
#X connect 0 0 11 0;
#X connect 0 0 12 0;
#X connect 0 0 13 0;
#X connect 0 0 14 0;
#X connect 0 0 15 0;
#X connect 0 0 16 0;
#X connect 0 0 17 0;
#X connect 0 0 18 0;
#X connect 0 0 19 0;
#X connect 1 0 8 1;
#X connect 1 0 5 1;
#X connect 1 0 9 1;
#X connect 1 0 10 1;
#X connect 1 0 11 1;
#X connect 1 0 12 1;
#X connect 1 0 13 1;
#X connect 1 0 14 1;
#X connect 1 0 15 1;
#X connect 1 0 16 1;
#X connect 1 0 17 1;
#X connect 1 0 18 1;
#X connect 1 0 19 1;
#X connect 2 0 8 2;
#X connect 2 0 5 2;
#X connect 2 0 9 2;
#X connect 2 0 10 2;
#X connect 2 0 11 2;
#X connect 2 0 12 2;
#X connect 2 0 13 2;
#X connect 2 0 14 2;
#X connect 2 0 15 2;
#X connect 2 0 16 2;
#X connect 2 0 17 2;
#X connect 2 0 18 2;
#X connect 2 0 19 2;
#X connect 3 0 8 3;
#X connect 3 0 5 3;
#X connect 3 0 9 3;
#X connect 3 0 10 3;
#X connect 3 0 11 3;
#X connect 3 0 12 3;
#X connect 3 0 13 3;
#X connect 3 0 14 3;
#X connect 3 0 15 3;
#X connect 3 0 16 3;
#X connect 3 0 17 3;
#X connect 3 0 18 3;
#X connect 3 0 19 3;
#X connect 4 0 8 4;
#X connect 4 0 5 4;
#X connect 4 0 9 4;
#X connect 4 0 10 4;
#X connect 4 0 11 4;
#X connect 4 0 12 4;
#X connect 4 0 13 4;
#X connect 4 0 14 4;
#X connect 4 0 15 4;
#X connect 4 0 16 4;
#X connect 4 0 17 4;
#X connect 4 0 18 4;
#X connect 4 0 19 4;
#X connect 5 0 20 2;
#X connect 7 0 5 5;
#X connect 7 0 8 5;
#X connect 7 0 9 5;
#X connect 7 0 10 5;
#X connect 7 0 11 5;
#X connect 7 0 12 5;
#X connect 7 0 13 5;
#X connect 7 0 14 5;
#X connect 7 0 15 5;
#X connect 7 0 16 5;
#X connect 7 0 17 5;
#X connect 7 0 18 5;
#X connect 7 0 19 5;
#X connect 8 0 20 0;
#X connect 9 0 20 1;
#X connect 10 0 20 3;
#X connect 11 0 20 4;
#X connect 12 0 20 5;
#X connect 13 0 20 6;
#X connect 14 0 20 7;
#X connect 15 0 20 8;
#X connect 16 0 20 9;
#X connect 17 0 20 10;
#X connect 18 0 20 11;
#X connect 19 0 20 12;
#X connect 20 0 6 0;
#X restore 118 381 pd clav;
#X obj 124 525 dac~;
#N canvas 0 0 450 300 (subpatch) 0;
#X array \$1-array 100 float 1;
#A 0 0 0 0 0 0 0 0 0 0 0 0 0 0 0 0 0 0 0 0 0 0 0 0 0 0 0 0 0 0 0 0
0 0 0 0 0 0 0 0 0 0 0 0 0 0 0 0 0 0 0 0 0 0 0 0 0 0 0 0 0 0 0 0 0 0
0 0 0 0 0 0 0 0 0 0 0 0 0 0 0 0 0 0 0 0 0 0 0 0 0 0 0 0 0 0 0 0 0 0
0;
#X coords 0 1 99 -1 200 140 1;
#X restore 519 62 graph;
#X obj 15 305 loadbang;
#X obj 10 368 metro 500;
#X obj 2 398 tabwrite~ \$1-array;
#X connect 0 0 1 0;
#X connect 1 0 2 0;
#X connect 2 0 20 5;
#X connect 3 0 19 0;
#X connect 4 0 18 0;
#X connect 5 0 17 0;
#X connect 6 0 15 0;
#X connect 7 0 16 0;
#X connect 15 0 20 4;
#X connect 16 0 20 3;
#X connect 17 0 20 2;
#X connect 18 0 20 1;
#X connect 19 0 20 0;
#X connect 20 0 25 0;
#X connect 20 0 21 0;
#X connect 20 0 21 1;
#X connect 23 0 24 0;
#X connect 24 0 25 0;
